<?xml version="1.0" encoding="utf-8" standalone="no"?>
<!DOCTYPE svg PUBLIC "-//W3C//DTD SVG 1.1//EN"
  "http://www.w3.org/Graphics/SVG/1.1/DTD/svg11.dtd">
<svg xmlns:xlink="http://www.w3.org/1999/xlink" width="2412.082035pt" height="357.0192pt" viewBox="0 0 2412.082035 357.0192" xmlns="http://www.w3.org/2000/svg" version="1.1">
 <metadata>
  <rdf:RDF xmlns:dc="http://purl.org/dc/elements/1.1/" xmlns:cc="http://creativecommons.org/ns#" xmlns:rdf="http://www.w3.org/1999/02/22-rdf-syntax-ns#">
   <cc:Work>
    <dc:type rdf:resource="http://purl.org/dc/dcmitype/StillImage"/>
    <dc:date>2026-08-07T03:21:34.695328</dc:date>
    <dc:format>image/svg+xml</dc:format>
    <dc:creator>
     <cc:Agent>
      <dc:title>Matplotlib v3.10.1, https://matplotlib.org/</dc:title>
     </cc:Agent>
    </dc:creator>
   </cc:Work>
  </rdf:RDF>
 </metadata>
 <defs>
  <style type="text/css">*{stroke-linejoin: round; stroke-linecap: butt}</style>
 </defs>
 <g id="figure_1">
  <g id="patch_1">
   <path d="M 0 357.0192 
L 2412.082035 357.0192 
L 2412.082035 0 
L 0 0 
z
" style="fill: #ffffff"/>
  </g>
  <g id="axes_1">
   <g id="line2d_1">
    <path d="M 80.627462 44.239914 
L 2400.252045 44.239914 
" clip-path="url(#p1b30d86682)" style="fill: none; stroke: #000000; stroke-width: 2; stroke-linecap: square"/>
   </g>
   <g id="line2d_2">
    <path d="M 80.627462 90.539805 
L 2400.252045 90.539805 
" clip-path="url(#p1b30d86682)" style="fill: none; stroke: #000000; stroke-width: 2; stroke-linecap: square"/>
   </g>
   <g id="line2d_3">
    <path d="M 80.627462 136.839697 
L 2400.252045 136.839697 
" clip-path="url(#p1b30d86682)" style="fill: none; stroke: #000000; stroke-width: 2; stroke-linecap: square"/>
   </g>
   <g id="line2d_4">
    <path d="M 80.627462 183.139589 
L 2400.252045 183.139589 
" clip-path="url(#p1b30d86682)" style="fill: none; stroke: #000000; stroke-width: 2; stroke-linecap: square"/>
   </g>
   <g id="line2d_5">
    <path d="M 80.627462 229.439481 
L 2400.252045 229.439481 
" clip-path="url(#p1b30d86682)" style="fill: none; stroke: #000000; stroke-width: 2; stroke-linecap: square"/>
   </g>
   <g id="line2d_6">
    <path d="M 80.627462 275.739373 
L 2400.252045 275.739373 
" clip-path="url(#p1b30d86682)" style="fill: none; stroke: #000000; stroke-width: 2; stroke-linecap: square"/>
   </g>
   <g id="line2d_7">
    <path d="M 89.88744 326.669254 
L 94.517429 317.409276 
" clip-path="url(#p1b30d86682)" style="fill: none; stroke: #778899; stroke-width: 1.5; stroke-linecap: square"/>
   </g>
   <g id="line2d_8">
    <path d="M 80.627462 320.534518 
L 2400.252045 320.534518 
" clip-path="url(#p1b30d86682)" style="fill: none; stroke: #778899; stroke-width: 2; stroke-linecap: square"/>
   </g>
   <g id="line2d_9">
    <path d="M 80.627462 323.544011 
L 2400.252045 323.544011 
" clip-path="url(#p1b30d86682)" style="fill: none; stroke: #778899; stroke-width: 2; stroke-linecap: square"/>
   </g>
   <g id="patch_2">
    <path d="M 2183.105552 311.506039 
L 2195.143524 311.506039 
L 2189.124538 320.187269 
z
" clip-path="url(#p1b30d86682)" style="fill: #778899"/>
   </g>
   <g id="patch_3">
    <path d="M 2322.005228 311.506039 
L 2334.0432 311.506039 
L 2328.024214 320.187269 
z
" clip-path="url(#p1b30d86682)" style="fill: #778899"/>
   </g>
   <g id="patch_4">
    <path d="M 2368.30512 311.506039 
L 2380.343092 311.506039 
L 2374.324106 320.187269 
z
" clip-path="url(#p1b30d86682)" style="fill: #778899"/>
   </g>
   <g id="patch_5">
    <path d="M 75.997472 21.089968 
L -1081.499825 21.089968 
L -1081.499825 391.489103 
L 75.997472 391.489103 
z
" clip-path="url(#p1b30d86682)" style="fill: #ffffff; stroke: #ffffff; stroke-width: 1.5; stroke-linejoin: miter"/>
   </g>
   <g id="line2d_10">
    <path d="M 198.229187 229.439481 
L 198.229187 183.139589 
" clip-path="url(#p1b30d86682)" style="fill: none; stroke: #002d9c; stroke-width: 2; stroke-linecap: square"/>
   </g>
   <g id="line2d_11">
    <path d="M 429.728646 183.139589 
L 429.728646 44.239914 
" clip-path="url(#p1b30d86682)" style="fill: none; stroke: #002d9c; stroke-width: 2; stroke-linecap: square"/>
   </g>
   <g id="line2d_12">
    <path d="M 476.028538 229.439481 
L 476.028538 183.139589 
" clip-path="url(#p1b30d86682)" style="fill: none; stroke: #002d9c; stroke-width: 2; stroke-linecap: square"/>
   </g>
   <g id="line2d_13">
    <path d="M 522.32843 229.439481 
L 522.32843 44.239914 
" clip-path="url(#p1b30d86682)" style="fill: none; stroke: #33b1ff; stroke-width: 2; stroke-linecap: square"/>
   </g>
   <g id="line2d_14">
    <path d="M 614.928214 44.239914 
L 614.928214 229.439481 
" clip-path="url(#p1b30d86682)" style="fill: none; stroke: #002d9c; stroke-width: 2; stroke-linecap: square"/>
   </g>
   <g id="line2d_15">
    <path d="M 707.527998 229.439481 
L 707.527998 183.139589 
" clip-path="url(#p1b30d86682)" style="fill: none; stroke: #002d9c; stroke-width: 2; stroke-linecap: square"/>
   </g>
   <g id="line2d_16">
    <path d="M 939.027457 183.139589 
L 939.027457 44.239914 
" clip-path="url(#p1b30d86682)" style="fill: none; stroke: #002d9c; stroke-width: 2; stroke-linecap: square"/>
   </g>
   <g id="line2d_17">
    <path d="M 985.327349 229.439481 
L 985.327349 183.139589 
" clip-path="url(#p1b30d86682)" style="fill: none; stroke: #002d9c; stroke-width: 2; stroke-linecap: square"/>
   </g>
   <g id="line2d_18">
    <path d="M 1031.627241 229.439481 
L 1031.627241 44.239914 
" clip-path="url(#p1b30d86682)" style="fill: none; stroke: #33b1ff; stroke-width: 2; stroke-linecap: square"/>
   </g>
   <g id="line2d_19">
    <path d="M 1124.227025 44.239914 
L 1124.227025 229.439481 
" clip-path="url(#p1b30d86682)" style="fill: none; stroke: #002d9c; stroke-width: 2; stroke-linecap: square"/>
   </g>
   <g id="line2d_20">
    <path d="M 1402.026376 229.439481 
L 1402.026376 183.139589 
" clip-path="url(#p1b30d86682)" style="fill: none; stroke: #002d9c; stroke-width: 2; stroke-linecap: square"/>
   </g>
   <g id="line2d_21">
    <path d="M 1448.326268 275.739373 
L 1448.326268 44.239914 
" clip-path="url(#p1b30d86682)" style="fill: none; stroke: #002d9c; stroke-width: 2; stroke-linecap: square"/>
   </g>
   <g id="line2d_22">
    <path d="M 1448.326268 44.239914 
L 1448.326268 136.839697 
" clip-path="url(#p1b30d86682)" style="fill: none; stroke: #002d9c; stroke-width: 2; stroke-linecap: square"/>
   </g>
   <g id="line2d_23">
    <path d="M 1726.125619 183.139589 
L 1726.125619 44.239914 
" clip-path="url(#p1b30d86682)" style="fill: none; stroke: #002d9c; stroke-width: 2; stroke-linecap: square"/>
   </g>
   <g id="line2d_24">
    <path d="M 1772.425511 229.439481 
L 1772.425511 183.139589 
" clip-path="url(#p1b30d86682)" style="fill: none; stroke: #002d9c; stroke-width: 2; stroke-linecap: square"/>
   </g>
   <g id="line2d_25">
    <path d="M 1818.725403 229.439481 
L 1818.725403 44.239914 
" clip-path="url(#p1b30d86682)" style="fill: none; stroke: #33b1ff; stroke-width: 2; stroke-linecap: square"/>
   </g>
   <g id="line2d_26">
    <path d="M 1911.325187 44.239914 
L 1911.325187 229.439481 
" clip-path="url(#p1b30d86682)" style="fill: none; stroke: #002d9c; stroke-width: 2; stroke-linecap: square"/>
   </g>
   <g id="line2d_27">
    <path d="M 2190.629285 275.739373 
L 2190.629285 311.506039 
" clip-path="url(#p1b30d86682)" style="fill: none; stroke: #778899; stroke-width: 2; stroke-linecap: square"/>
   </g>
   <g id="line2d_28">
    <path d="M 2187.619792 275.739373 
L 2187.619792 311.506039 
" clip-path="url(#p1b30d86682)" style="fill: none; stroke: #778899; stroke-width: 2; stroke-linecap: square"/>
   </g>
   <g id="line2d_29">
    <path d="M 2235.42443 229.439481 
L 2235.42443 44.239914 
" clip-path="url(#p1b30d86682)" style="fill: none; stroke: #002d9c; stroke-width: 2; stroke-linecap: square"/>
   </g>
   <g id="line2d_30">
    <path d="M 2235.42443 44.239914 
L 2235.42443 90.539805 
" clip-path="url(#p1b30d86682)" style="fill: none; stroke: #002d9c; stroke-width: 2; stroke-linecap: square"/>
   </g>
   <g id="line2d_31">
    <path d="M 2329.52896 44.239914 
L 2329.52896 311.506039 
" clip-path="url(#p1b30d86682)" style="fill: none; stroke: #778899; stroke-width: 2; stroke-linecap: square"/>
   </g>
   <g id="line2d_32">
    <path d="M 2326.519467 44.239914 
L 2326.519467 311.506039 
" clip-path="url(#p1b30d86682)" style="fill: none; stroke: #778899; stroke-width: 2; stroke-linecap: square"/>
   </g>
   <g id="line2d_33">
    <path d="M 2375.828852 229.439481 
L 2375.828852 311.506039 
" clip-path="url(#p1b30d86682)" style="fill: none; stroke: #778899; stroke-width: 2; stroke-linecap: square"/>
   </g>
   <g id="line2d_34">
    <path d="M 2372.819359 229.439481 
L 2372.819359 311.506039 
" clip-path="url(#p1b30d86682)" style="fill: none; stroke: #778899; stroke-width: 2; stroke-linecap: square"/>
   </g>
   <g id="line2d_35">
    <path d="M 522.32843 229.439481 
L 522.32843 44.239914 
" clip-path="url(#p1b30d86682)" style="fill: none; stroke: #33b1ff; stroke-width: 2; stroke-linecap: square"/>
   </g>
   <g id="line2d_36">
    <path d="M 608.909228 50.258899 
L 620.9472 38.220928 
" clip-path="url(#p1b30d86682)" style="fill: none; stroke: #002d9c; stroke-width: 2; stroke-linecap: square"/>
   </g>
   <g id="line2d_37">
    <path d="M 608.909228 38.220928 
L 620.9472 50.258899 
" clip-path="url(#p1b30d86682)" style="fill: none; stroke: #002d9c; stroke-width: 2; stroke-linecap: square"/>
   </g>
   <g id="line2d_38">
    <path d="M 608.909228 235.458467 
L 620.9472 223.420495 
" clip-path="url(#p1b30d86682)" style="fill: none; stroke: #002d9c; stroke-width: 2; stroke-linecap: square"/>
   </g>
   <g id="line2d_39">
    <path d="M 608.909228 223.420495 
L 620.9472 235.458467 
" clip-path="url(#p1b30d86682)" style="fill: none; stroke: #002d9c; stroke-width: 2; stroke-linecap: square"/>
   </g>
   <g id="line2d_40">
    <path d="M 1031.627241 229.439481 
L 1031.627241 44.239914 
" clip-path="url(#p1b30d86682)" style="fill: none; stroke: #33b1ff; stroke-width: 2; stroke-linecap: square"/>
   </g>
   <g id="line2d_41">
    <path d="M 1118.208039 50.258899 
L 1130.246011 38.220928 
" clip-path="url(#p1b30d86682)" style="fill: none; stroke: #002d9c; stroke-width: 2; stroke-linecap: square"/>
   </g>
   <g id="line2d_42">
    <path d="M 1118.208039 38.220928 
L 1130.246011 50.258899 
" clip-path="url(#p1b30d86682)" style="fill: none; stroke: #002d9c; stroke-width: 2; stroke-linecap: square"/>
   </g>
   <g id="line2d_43">
    <path d="M 1118.208039 235.458467 
L 1130.246011 223.420495 
" clip-path="url(#p1b30d86682)" style="fill: none; stroke: #002d9c; stroke-width: 2; stroke-linecap: square"/>
   </g>
   <g id="line2d_44">
    <path d="M 1118.208039 223.420495 
L 1130.246011 235.458467 
" clip-path="url(#p1b30d86682)" style="fill: none; stroke: #002d9c; stroke-width: 2; stroke-linecap: square"/>
   </g>
   <g id="line2d_45">
    <path d="M 1442.307282 50.258899 
L 1454.345254 38.220928 
" clip-path="url(#p1b30d86682)" style="fill: none; stroke: #002d9c; stroke-width: 2; stroke-linecap: square"/>
   </g>
   <g id="line2d_46">
    <path d="M 1442.307282 38.220928 
L 1454.345254 50.258899 
" clip-path="url(#p1b30d86682)" style="fill: none; stroke: #002d9c; stroke-width: 2; stroke-linecap: square"/>
   </g>
   <g id="line2d_47">
    <path d="M 1442.307282 142.858683 
L 1454.345254 130.820711 
" clip-path="url(#p1b30d86682)" style="fill: none; stroke: #002d9c; stroke-width: 2; stroke-linecap: square"/>
   </g>
   <g id="line2d_48">
    <path d="M 1442.307282 130.820711 
L 1454.345254 142.858683 
" clip-path="url(#p1b30d86682)" style="fill: none; stroke: #002d9c; stroke-width: 2; stroke-linecap: square"/>
   </g>
   <g id="line2d_49">
    <path d="M 1818.725403 229.439481 
L 1818.725403 44.239914 
" clip-path="url(#p1b30d86682)" style="fill: none; stroke: #33b1ff; stroke-width: 2; stroke-linecap: square"/>
   </g>
   <g id="line2d_50">
    <path d="M 1905.306201 50.258899 
L 1917.344173 38.220928 
" clip-path="url(#p1b30d86682)" style="fill: none; stroke: #002d9c; stroke-width: 2; stroke-linecap: square"/>
   </g>
   <g id="line2d_51">
    <path d="M 1905.306201 38.220928 
L 1917.344173 50.258899 
" clip-path="url(#p1b30d86682)" style="fill: none; stroke: #002d9c; stroke-width: 2; stroke-linecap: square"/>
   </g>
   <g id="line2d_52">
    <path d="M 1905.306201 235.458467 
L 1917.344173 223.420495 
" clip-path="url(#p1b30d86682)" style="fill: none; stroke: #002d9c; stroke-width: 2; stroke-linecap: square"/>
   </g>
   <g id="line2d_53">
    <path d="M 1905.306201 223.420495 
L 1917.344173 235.458467 
" clip-path="url(#p1b30d86682)" style="fill: none; stroke: #002d9c; stroke-width: 2; stroke-linecap: square"/>
   </g>
   <g id="line2d_54">
    <path d="M 2229.405444 50.258899 
L 2241.443416 38.220928 
" clip-path="url(#p1b30d86682)" style="fill: none; stroke: #002d9c; stroke-width: 2; stroke-linecap: square"/>
   </g>
   <g id="line2d_55">
    <path d="M 2229.405444 38.220928 
L 2241.443416 50.258899 
" clip-path="url(#p1b30d86682)" style="fill: none; stroke: #002d9c; stroke-width: 2; stroke-linecap: square"/>
   </g>
   <g id="line2d_56">
    <path d="M 2229.405444 96.558791 
L 2241.443416 84.520819 
" clip-path="url(#p1b30d86682)" style="fill: none; stroke: #002d9c; stroke-width: 2; stroke-linecap: square"/>
   </g>
   <g id="line2d_57">
    <path d="M 2229.405444 84.520819 
L 2241.443416 96.558791 
" clip-path="url(#p1b30d86682)" style="fill: none; stroke: #002d9c; stroke-width: 2; stroke-linecap: square"/>
   </g>
   <g id="patch_6">
    <path d="M 96.600924 67.389859 
L 114.657882 67.389859 
L 114.657882 37.29493 
L 96.600924 37.29493 
z
" clip-path="url(#p1b30d86682)" style="fill: #a8a8a8; opacity: 0.6"/>
   </g>
   <g id="patch_7">
    <path d="M 96.600924 113.689751 
L 114.657882 113.689751 
L 114.657882 67.389859 
L 96.600924 67.389859 
z
" clip-path="url(#p1b30d86682)" style="fill: #a8a8a8; opacity: 0.6"/>
   </g>
   <g id="patch_8">
    <path d="M 96.600924 159.989643 
L 114.657882 159.989643 
L 114.657882 113.689751 
L 96.600924 113.689751 
z
" clip-path="url(#p1b30d86682)" style="fill: #a8a8a8; opacity: 0.6"/>
   </g>
   <g id="patch_9">
    <path d="M 96.600924 206.289535 
L 114.657882 206.289535 
L 114.657882 159.989643 
L 96.600924 159.989643 
z
" clip-path="url(#p1b30d86682)" style="fill: #a8a8a8; opacity: 0.6"/>
   </g>
   <g id="patch_10">
    <path d="M 96.600924 252.589427 
L 114.657882 252.589427 
L 114.657882 206.289535 
L 96.600924 206.289535 
z
" clip-path="url(#p1b30d86682)" style="fill: #a8a8a8; opacity: 0.6"/>
   </g>
   <g id="patch_11">
    <path d="M 96.600924 298.889319 
L 114.657882 298.889319 
L 114.657882 252.589427 
L 96.600924 252.589427 
z
" clip-path="url(#p1b30d86682)" style="fill: #a8a8a8; opacity: 0.6"/>
   </g>
   <g id="patch_12">
    <path d="M 304.950438 67.389859 
L 323.007396 67.389859 
L 323.007396 37.29493 
L 304.950438 37.29493 
z
" clip-path="url(#p1b30d86682)" style="fill: #a8a8a8; opacity: 0.6"/>
   </g>
   <g id="patch_13">
    <path d="M 304.950438 113.689751 
L 323.007396 113.689751 
L 323.007396 67.389859 
L 304.950438 67.389859 
z
" clip-path="url(#p1b30d86682)" style="fill: #a8a8a8; opacity: 0.6"/>
   </g>
   <g id="patch_14">
    <path d="M 304.950438 159.989643 
L 323.007396 159.989643 
L 323.007396 113.689751 
L 304.950438 113.689751 
z
" clip-path="url(#p1b30d86682)" style="fill: #a8a8a8; opacity: 0.6"/>
   </g>
   <g id="patch_15">
    <path d="M 304.950438 206.289535 
L 323.007396 206.289535 
L 323.007396 159.989643 
L 304.950438 159.989643 
z
" clip-path="url(#p1b30d86682)" style="fill: #a8a8a8; opacity: 0.6"/>
   </g>
   <g id="patch_16">
    <path d="M 304.950438 252.589427 
L 323.007396 252.589427 
L 323.007396 206.289535 
L 304.950438 206.289535 
z
" clip-path="url(#p1b30d86682)" style="fill: #a8a8a8; opacity: 0.6"/>
   </g>
   <g id="patch_17">
    <path d="M 304.950438 298.889319 
L 323.007396 298.889319 
L 323.007396 252.589427 
L 304.950438 252.589427 
z
" clip-path="url(#p1b30d86682)" style="fill: #a8a8a8; opacity: 0.6"/>
   </g>
   <g id="patch_18">
    <path d="M 814.249249 67.389859 
L 832.306206 67.389859 
L 832.306206 37.29493 
L 814.249249 37.29493 
z
" clip-path="url(#p1b30d86682)" style="fill: #a8a8a8; opacity: 0.6"/>
   </g>
   <g id="patch_19">
    <path d="M 814.249249 113.689751 
L 832.306206 113.689751 
L 832.306206 67.389859 
L 814.249249 67.389859 
z
" clip-path="url(#p1b30d86682)" style="fill: #a8a8a8; opacity: 0.6"/>
   </g>
   <g id="patch_20">
    <path d="M 814.249249 159.989643 
L 832.306206 159.989643 
L 832.306206 113.689751 
L 814.249249 113.689751 
z
" clip-path="url(#p1b30d86682)" style="fill: #a8a8a8; opacity: 0.6"/>
   </g>
   <g id="patch_21">
    <path d="M 814.249249 206.289535 
L 832.306206 206.289535 
L 832.306206 159.989643 
L 814.249249 159.989643 
z
" clip-path="url(#p1b30d86682)" style="fill: #a8a8a8; opacity: 0.6"/>
   </g>
   <g id="patch_22">
    <path d="M 814.249249 252.589427 
L 832.306206 252.589427 
L 832.306206 206.289535 
L 814.249249 206.289535 
z
" clip-path="url(#p1b30d86682)" style="fill: #a8a8a8; opacity: 0.6"/>
   </g>
   <g id="patch_23">
    <path d="M 814.249249 298.889319 
L 832.306206 298.889319 
L 832.306206 252.589427 
L 814.249249 252.589427 
z
" clip-path="url(#p1b30d86682)" style="fill: #a8a8a8; opacity: 0.6"/>
   </g>
   <g id="patch_24">
    <path d="M 1254.098222 67.389859 
L 1272.155179 67.389859 
L 1272.155179 37.29493 
L 1254.098222 37.29493 
z
" clip-path="url(#p1b30d86682)" style="fill: #a8a8a8; opacity: 0.6"/>
   </g>
   <g id="patch_25">
    <path d="M 1254.098222 113.689751 
L 1272.155179 113.689751 
L 1272.155179 67.389859 
L 1254.098222 67.389859 
z
" clip-path="url(#p1b30d86682)" style="fill: #a8a8a8; opacity: 0.6"/>
   </g>
   <g id="patch_26">
    <path d="M 1254.098222 159.989643 
L 1272.155179 159.989643 
L 1272.155179 113.689751 
L 1254.098222 113.689751 
z
" clip-path="url(#p1b30d86682)" style="fill: #a8a8a8; opacity: 0.6"/>
   </g>
   <g id="patch_27">
    <path d="M 1254.098222 206.289535 
L 1272.155179 206.289535 
L 1272.155179 159.989643 
L 1254.098222 159.989643 
z
" clip-path="url(#p1b30d86682)" style="fill: #a8a8a8; opacity: 0.6"/>
   </g>
   <g id="patch_28">
    <path d="M 1254.098222 252.589427 
L 1272.155179 252.589427 
L 1272.155179 206.289535 
L 1254.098222 206.289535 
z
" clip-path="url(#p1b30d86682)" style="fill: #a8a8a8; opacity: 0.6"/>
   </g>
   <g id="patch_29">
    <path d="M 1254.098222 298.889319 
L 1272.155179 298.889319 
L 1272.155179 252.589427 
L 1254.098222 252.589427 
z
" clip-path="url(#p1b30d86682)" style="fill: #a8a8a8; opacity: 0.6"/>
   </g>
   <g id="patch_30">
    <path d="M 1601.347411 67.389859 
L 1619.404369 67.389859 
L 1619.404369 37.29493 
L 1601.347411 37.29493 
z
" clip-path="url(#p1b30d86682)" style="fill: #a8a8a8; opacity: 0.6"/>
   </g>
   <g id="patch_31">
    <path d="M 1601.347411 113.689751 
L 1619.404369 113.689751 
L 1619.404369 67.389859 
L 1601.347411 67.389859 
z
" clip-path="url(#p1b30d86682)" style="fill: #a8a8a8; opacity: 0.6"/>
   </g>
   <g id="patch_32">
    <path d="M 1601.347411 159.989643 
L 1619.404369 159.989643 
L 1619.404369 113.689751 
L 1601.347411 113.689751 
z
" clip-path="url(#p1b30d86682)" style="fill: #a8a8a8; opacity: 0.6"/>
   </g>
   <g id="patch_33">
    <path d="M 1601.347411 206.289535 
L 1619.404369 206.289535 
L 1619.404369 159.989643 
L 1601.347411 159.989643 
z
" clip-path="url(#p1b30d86682)" style="fill: #a8a8a8; opacity: 0.6"/>
   </g>
   <g id="patch_34">
    <path d="M 1601.347411 252.589427 
L 1619.404369 252.589427 
L 1619.404369 206.289535 
L 1601.347411 206.289535 
z
" clip-path="url(#p1b30d86682)" style="fill: #a8a8a8; opacity: 0.6"/>
   </g>
   <g id="patch_35">
    <path d="M 1601.347411 298.889319 
L 1619.404369 298.889319 
L 1619.404369 252.589427 
L 1601.347411 252.589427 
z
" clip-path="url(#p1b30d86682)" style="fill: #a8a8a8; opacity: 0.6"/>
   </g>
   <g id="patch_36">
    <path d="M 2087.496276 67.389859 
L 2105.553233 67.389859 
L 2105.553233 37.29493 
L 2087.496276 37.29493 
z
" clip-path="url(#p1b30d86682)" style="fill: #a8a8a8; opacity: 0.6"/>
   </g>
   <g id="patch_37">
    <path d="M 2087.496276 113.689751 
L 2105.553233 113.689751 
L 2105.553233 67.389859 
L 2087.496276 67.389859 
z
" clip-path="url(#p1b30d86682)" style="fill: #a8a8a8; opacity: 0.6"/>
   </g>
   <g id="patch_38">
    <path d="M 2087.496276 159.989643 
L 2105.553233 159.989643 
L 2105.553233 113.689751 
L 2087.496276 113.689751 
z
" clip-path="url(#p1b30d86682)" style="fill: #a8a8a8; opacity: 0.6"/>
   </g>
   <g id="patch_39">
    <path d="M 2087.496276 206.289535 
L 2105.553233 206.289535 
L 2105.553233 159.989643 
L 2087.496276 159.989643 
z
" clip-path="url(#p1b30d86682)" style="fill: #a8a8a8; opacity: 0.6"/>
   </g>
   <g id="patch_40">
    <path d="M 2087.496276 252.589427 
L 2105.553233 252.589427 
L 2105.553233 206.289535 
L 2087.496276 206.289535 
z
" clip-path="url(#p1b30d86682)" style="fill: #a8a8a8; opacity: 0.6"/>
   </g>
   <g id="patch_41">
    <path d="M 2087.496276 298.889319 
L 2105.553233 298.889319 
L 2105.553233 252.589427 
L 2087.496276 252.589427 
z
" clip-path="url(#p1b30d86682)" style="fill: #a8a8a8; opacity: 0.6"/>
   </g>
   <g id="patch_42">
    <path d="M 136.88183 198.187054 
L 166.97676 198.187054 
L 166.97676 168.092124 
L 136.88183 168.092124 
z
" clip-path="url(#p1b30d86682)" style="fill: #fa4d56; stroke: #fa4d56; stroke-width: 1.5; stroke-linejoin: miter"/>
   </g>
   <g id="patch_43">
    <path d="M 198.229187 187.653829 
C 199.426377 187.653829 200.574695 187.17818 201.421236 186.331639 
C 202.267778 185.485097 202.743426 184.336779 202.743426 183.139589 
C 202.743426 181.942399 202.267778 180.794081 201.421236 179.94754 
C 200.574695 179.100998 199.426377 178.62535 198.229187 178.62535 
C 197.031997 178.62535 195.883679 179.100998 195.037138 179.94754 
C 194.190596 180.794081 193.714947 181.942399 193.714947 183.139589 
C 193.714947 184.336779 194.190596 185.485097 195.037138 186.331639 
C 195.883679 187.17818 197.031997 187.653829 198.229187 187.653829 
z
" clip-path="url(#p1b30d86682)" style="fill: #002d9c; stroke: #002d9c; stroke-width: 1.5; stroke-linejoin: miter"/>
   </g>
   <g id="patch_44">
    <path d="M 198.229187 239.972706 
C 201.022631 239.972706 203.702039 238.862859 205.677302 236.887596 
C 207.652565 234.912333 208.762412 232.232925 208.762412 229.439481 
C 208.762412 226.646037 207.652565 223.966629 205.677302 221.991366 
C 203.702039 220.016103 201.022631 218.906256 198.229187 218.906256 
C 195.435743 218.906256 192.756335 220.016103 190.781072 221.991366 
C 188.805809 223.966629 187.695962 226.646037 187.695962 229.439481 
C 187.695962 232.232925 188.805809 234.912333 190.781072 236.887596 
C 192.756335 238.862859 195.435743 239.972706 198.229187 239.972706 
z
" clip-path="url(#p1b30d86682)" style="fill: #002d9c; stroke: #002d9c; stroke-width: 2; stroke-linejoin: miter"/>
   </g>
   <g id="patch_45">
    <path d="M 429.728646 48.754153 
C 430.925837 48.754153 432.074154 48.278504 432.920696 47.431963 
C 433.767237 46.585421 434.242886 45.437104 434.242886 44.239914 
C 434.242886 43.042723 433.767237 41.894406 432.920696 41.047864 
C 432.074154 40.201323 430.925837 39.725674 429.728646 39.725674 
C 428.531456 39.725674 427.383138 40.201323 426.536597 41.047864 
C 425.690056 41.894406 425.214407 43.042723 425.214407 44.239914 
C 425.214407 45.437104 425.690056 46.585421 426.536597 47.431963 
C 427.383138 48.278504 428.531456 48.754153 429.728646 48.754153 
z
" clip-path="url(#p1b30d86682)" style="fill: #002d9c; stroke: #002d9c; stroke-width: 1.5; stroke-linejoin: miter"/>
   </g>
   <g id="patch_46">
    <path d="M 429.728646 193.672815 
C 432.52209 193.672815 435.201498 192.562968 437.176762 190.587704 
C 439.152025 188.612441 440.261872 185.933033 440.261872 183.139589 
C 440.261872 180.346145 439.152025 177.666737 437.176762 175.691474 
C 435.201498 173.716211 432.52209 172.606364 429.728646 172.606364 
C 426.935202 172.606364 424.255795 173.716211 422.280531 175.691474 
C 420.305268 177.666737 419.195421 180.346145 419.195421 183.139589 
C 419.195421 185.933033 420.305268 188.612441 422.280531 190.587704 
C 424.255795 192.562968 426.935202 193.672815 429.728646 193.672815 
z
" clip-path="url(#p1b30d86682)" style="fill: #002d9c; stroke: #002d9c; stroke-width: 2; stroke-linejoin: miter"/>
   </g>
   <g id="patch_47">
    <path d="M 460.981073 59.287378 
L 491.076003 59.287378 
L 491.076003 29.192449 
L 460.981073 29.192449 
z
" clip-path="url(#p1b30d86682)" style="fill: #fa4d56; stroke: #fa4d56; stroke-width: 1.5; stroke-linejoin: miter"/>
   </g>
   <g id="patch_48">
    <path d="M 476.028538 187.653829 
C 477.225729 187.653829 478.374046 187.17818 479.220588 186.331639 
C 480.067129 185.485097 480.542778 184.336779 480.542778 183.139589 
C 480.542778 181.942399 480.067129 180.794081 479.220588 179.94754 
C 478.374046 179.100998 477.225729 178.62535 476.028538 178.62535 
C 474.831348 178.62535 473.68303 179.100998 472.836489 179.94754 
C 471.989948 180.794081 471.514299 181.942399 471.514299 183.139589 
C 471.514299 184.336779 471.989948 185.485097 472.836489 186.331639 
C 473.68303 187.17818 474.831348 187.653829 476.028538 187.653829 
z
" clip-path="url(#p1b30d86682)" style="fill: #002d9c; stroke: #002d9c; stroke-width: 1.5; stroke-linejoin: miter"/>
   </g>
   <g id="patch_49">
    <path d="M 476.028538 239.972706 
C 478.821982 239.972706 481.50139 238.862859 483.476653 236.887596 
C 485.451917 234.912333 486.561764 232.232925 486.561764 229.439481 
C 486.561764 226.646037 485.451917 223.966629 483.476653 221.991366 
C 481.50139 220.016103 478.821982 218.906256 476.028538 218.906256 
C 473.235094 218.906256 470.555686 220.016103 468.580423 221.991366 
C 466.60516 223.966629 465.495313 226.646037 465.495313 229.439481 
C 465.495313 232.232925 466.60516 234.912333 468.580423 236.887596 
C 470.555686 238.862859 473.235094 239.972706 476.028538 239.972706 
z
" clip-path="url(#p1b30d86682)" style="fill: #002d9c; stroke: #002d9c; stroke-width: 2; stroke-linejoin: miter"/>
   </g>
   <g id="patch_50">
    <path d="M 522.32843 48.754153 
C 523.52562 48.754153 524.673938 48.278504 525.52048 47.431963 
C 526.367021 46.585421 526.84267 45.437104 526.84267 44.239914 
C 526.84267 43.042723 526.367021 41.894406 525.52048 41.047864 
C 524.673938 40.201323 523.52562 39.725674 522.32843 39.725674 
C 521.13124 39.725674 519.982922 40.201323 519.136381 41.047864 
C 518.289839 41.894406 517.814191 43.042723 517.814191 44.239914 
C 517.814191 45.437104 518.289839 46.585421 519.136381 47.431963 
C 519.982922 48.278504 521.13124 48.754153 522.32843 48.754153 
z
" clip-path="url(#p1b30d86682)" style="fill: #33b1ff; stroke: #33b1ff; stroke-width: 1.5; stroke-linejoin: miter"/>
   </g>
   <g id="patch_51">
    <path d="M 522.32843 233.953721 
C 523.52562 233.953721 524.673938 233.478072 525.52048 232.63153 
C 526.367021 231.784989 526.84267 230.636671 526.84267 229.439481 
C 526.84267 228.242291 526.367021 227.093973 525.52048 226.247432 
C 524.673938 225.40089 523.52562 224.925242 522.32843 224.925242 
C 521.13124 224.925242 519.982922 225.40089 519.136381 226.247432 
C 518.289839 227.093973 517.814191 228.242291 517.814191 229.439481 
C 517.814191 230.636671 518.289839 231.784989 519.136381 232.63153 
C 519.982922 233.478072 521.13124 233.953721 522.32843 233.953721 
z
" clip-path="url(#p1b30d86682)" style="fill: #33b1ff; stroke: #33b1ff; stroke-width: 1.5; stroke-linejoin: miter"/>
   </g>
   <g id="patch_52">
    <path d="M 553.580857 198.187054 
L 583.675787 198.187054 
L 583.675787 168.092124 
L 553.580857 168.092124 
z
" clip-path="url(#p1b30d86682)" style="fill: #a8a8a8; stroke: #a8a8a8; stroke-width: 1.5; stroke-linejoin: miter"/>
   </g>
   <g id="patch_53">
    <path d="M 646.180641 198.187054 
L 676.275571 198.187054 
L 676.275571 168.092124 
L 646.180641 168.092124 
z
" clip-path="url(#p1b30d86682)" style="fill: #fa4d56; stroke: #fa4d56; stroke-width: 1.5; stroke-linejoin: miter"/>
   </g>
   <g id="patch_54">
    <path d="M 646.180641 244.486946 
L 676.275571 244.486946 
L 676.275571 214.392016 
L 646.180641 214.392016 
z
" clip-path="url(#p1b30d86682)" style="fill: #a8a8a8; stroke: #a8a8a8; stroke-width: 1.5; stroke-linejoin: miter"/>
   </g>
   <g id="patch_55">
    <path d="M 707.527998 187.653829 
C 708.725188 187.653829 709.873506 187.17818 710.720047 186.331639 
C 711.566588 185.485097 712.042237 184.336779 712.042237 183.139589 
C 712.042237 181.942399 711.566588 180.794081 710.720047 179.94754 
C 709.873506 179.100998 708.725188 178.62535 707.527998 178.62535 
C 706.330807 178.62535 705.18249 179.100998 704.335948 179.94754 
C 703.489407 180.794081 703.013758 181.942399 703.013758 183.139589 
C 703.013758 184.336779 703.489407 185.485097 704.335948 186.331639 
C 705.18249 187.17818 706.330807 187.653829 707.527998 187.653829 
z
" clip-path="url(#p1b30d86682)" style="fill: #002d9c; stroke: #002d9c; stroke-width: 1.5; stroke-linejoin: miter"/>
   </g>
   <g id="patch_56">
    <path d="M 707.527998 239.972706 
C 710.321442 239.972706 713.00085 238.862859 714.976113 236.887596 
C 716.951376 234.912333 718.061223 232.232925 718.061223 229.439481 
C 718.061223 226.646037 716.951376 223.966629 714.976113 221.991366 
C 713.00085 220.016103 710.321442 218.906256 707.527998 218.906256 
C 704.734554 218.906256 702.055146 220.016103 700.079883 221.991366 
C 698.104619 223.966629 696.994772 226.646037 696.994772 229.439481 
C 696.994772 232.232925 698.104619 234.912333 700.079883 236.887596 
C 702.055146 238.862859 704.734554 239.972706 707.527998 239.972706 
z
" clip-path="url(#p1b30d86682)" style="fill: #002d9c; stroke: #002d9c; stroke-width: 2; stroke-linejoin: miter"/>
   </g>
   <g id="patch_57">
    <path d="M 939.027457 48.754153 
C 940.224648 48.754153 941.372965 48.278504 942.219507 47.431963 
C 943.066048 46.585421 943.541697 45.437104 943.541697 44.239914 
C 943.541697 43.042723 943.066048 41.894406 942.219507 41.047864 
C 941.372965 40.201323 940.224648 39.725674 939.027457 39.725674 
C 937.830267 39.725674 936.681949 40.201323 935.835408 41.047864 
C 934.988867 41.894406 934.513218 43.042723 934.513218 44.239914 
C 934.513218 45.437104 934.988867 46.585421 935.835408 47.431963 
C 936.681949 48.278504 937.830267 48.754153 939.027457 48.754153 
z
" clip-path="url(#p1b30d86682)" style="fill: #002d9c; stroke: #002d9c; stroke-width: 1.5; stroke-linejoin: miter"/>
   </g>
   <g id="patch_58">
    <path d="M 939.027457 193.672815 
C 941.820901 193.672815 944.500309 192.562968 946.475572 190.587704 
C 948.450836 188.612441 949.560683 185.933033 949.560683 183.139589 
C 949.560683 180.346145 948.450836 177.666737 946.475572 175.691474 
C 944.500309 173.716211 941.820901 172.606364 939.027457 172.606364 
C 936.234013 172.606364 933.554605 173.716211 931.579342 175.691474 
C 929.604079 177.666737 928.494232 180.346145 928.494232 183.139589 
C 928.494232 185.933033 929.604079 188.612441 931.579342 190.587704 
C 933.554605 192.562968 936.234013 193.672815 939.027457 193.672815 
z
" clip-path="url(#p1b30d86682)" style="fill: #002d9c; stroke: #002d9c; stroke-width: 2; stroke-linejoin: miter"/>
   </g>
   <g id="patch_59">
    <path d="M 923.979992 290.786838 
L 954.074922 290.786838 
L 954.074922 260.691908 
L 923.979992 260.691908 
z
" clip-path="url(#p1b30d86682)" style="fill: #a8a8a8; stroke: #a8a8a8; stroke-width: 1.5; stroke-linejoin: miter"/>
   </g>
   <g id="patch_60">
    <path d="M 970.279884 59.287378 
L 1000.374814 59.287378 
L 1000.374814 29.192449 
L 970.279884 29.192449 
z
" clip-path="url(#p1b30d86682)" style="fill: #fa4d56; stroke: #fa4d56; stroke-width: 1.5; stroke-linejoin: miter"/>
   </g>
   <g id="patch_61">
    <path d="M 985.327349 187.653829 
C 986.524539 187.653829 987.672857 187.17818 988.519398 186.331639 
C 989.36594 185.485097 989.841589 184.336779 989.841589 183.139589 
C 989.841589 181.942399 989.36594 180.794081 988.519398 179.94754 
C 987.672857 179.100998 986.524539 178.62535 985.327349 178.62535 
C 984.130159 178.62535 982.981841 179.100998 982.1353 179.94754 
C 981.288758 180.794081 980.81311 181.942399 980.81311 183.139589 
C 980.81311 184.336779 981.288758 185.485097 982.1353 186.331639 
C 982.981841 187.17818 984.130159 187.653829 985.327349 187.653829 
z
" clip-path="url(#p1b30d86682)" style="fill: #002d9c; stroke: #002d9c; stroke-width: 1.5; stroke-linejoin: miter"/>
   </g>
   <g id="patch_62">
    <path d="M 985.327349 239.972706 
C 988.120793 239.972706 990.800201 238.862859 992.775464 236.887596 
C 994.750727 234.912333 995.860575 232.232925 995.860575 229.439481 
C 995.860575 226.646037 994.750727 223.966629 992.775464 221.991366 
C 990.800201 220.016103 988.120793 218.906256 985.327349 218.906256 
C 982.533905 218.906256 979.854497 220.016103 977.879234 221.991366 
C 975.903971 223.966629 974.794124 226.646037 974.794124 229.439481 
C 974.794124 232.232925 975.903971 234.912333 977.879234 236.887596 
C 979.854497 238.862859 982.533905 239.972706 985.327349 239.972706 
z
" clip-path="url(#p1b30d86682)" style="fill: #002d9c; stroke: #002d9c; stroke-width: 2; stroke-linejoin: miter"/>
   </g>
   <g id="patch_63">
    <path d="M 1031.627241 48.754153 
C 1032.824431 48.754153 1033.972749 48.278504 1034.81929 47.431963 
C 1035.665832 46.585421 1036.14148 45.437104 1036.14148 44.239914 
C 1036.14148 43.042723 1035.665832 41.894406 1034.81929 41.047864 
C 1033.972749 40.201323 1032.824431 39.725674 1031.627241 39.725674 
C 1030.430051 39.725674 1029.281733 40.201323 1028.435192 41.047864 
C 1027.58865 41.894406 1027.113002 43.042723 1027.113002 44.239914 
C 1027.113002 45.437104 1027.58865 46.585421 1028.435192 47.431963 
C 1029.281733 48.278504 1030.430051 48.754153 1031.627241 48.754153 
z
" clip-path="url(#p1b30d86682)" style="fill: #33b1ff; stroke: #33b1ff; stroke-width: 1.5; stroke-linejoin: miter"/>
   </g>
   <g id="patch_64">
    <path d="M 1031.627241 233.953721 
C 1032.824431 233.953721 1033.972749 233.478072 1034.81929 232.63153 
C 1035.665832 231.784989 1036.14148 230.636671 1036.14148 229.439481 
C 1036.14148 228.242291 1035.665832 227.093973 1034.81929 226.247432 
C 1033.972749 225.40089 1032.824431 224.925242 1031.627241 224.925242 
C 1030.430051 224.925242 1029.281733 225.40089 1028.435192 226.247432 
C 1027.58865 227.093973 1027.113002 228.242291 1027.113002 229.439481 
C 1027.113002 230.636671 1027.58865 231.784989 1028.435192 232.63153 
C 1029.281733 233.478072 1030.430051 233.953721 1031.627241 233.953721 
z
" clip-path="url(#p1b30d86682)" style="fill: #33b1ff; stroke: #33b1ff; stroke-width: 1.5; stroke-linejoin: miter"/>
   </g>
   <g id="patch_65">
    <path d="M 1062.879668 198.187054 
L 1092.974598 198.187054 
L 1092.974598 168.092124 
L 1062.879668 168.092124 
z
" clip-path="url(#p1b30d86682)" style="fill: #a8a8a8; stroke: #a8a8a8; stroke-width: 1.5; stroke-linejoin: miter"/>
   </g>
   <g id="patch_66">
    <path d="M 1155.479452 244.486946 
L 1185.574382 244.486946 
L 1185.574382 214.392016 
L 1155.479452 214.392016 
z
" clip-path="url(#p1b30d86682)" style="fill: #a8a8a8; stroke: #a8a8a8; stroke-width: 1.5; stroke-linejoin: miter"/>
   </g>
   <g id="patch_67">
    <path d="M 1340.679019 198.187054 
L 1370.773949 198.187054 
L 1370.773949 168.092124 
L 1340.679019 168.092124 
z
" clip-path="url(#p1b30d86682)" style="fill: #fa4d56; stroke: #fa4d56; stroke-width: 1.5; stroke-linejoin: miter"/>
   </g>
   <g id="patch_68">
    <path d="M 1340.679019 290.786838 
L 1370.773949 290.786838 
L 1370.773949 260.691908 
L 1340.679019 260.691908 
z
" clip-path="url(#p1b30d86682)" style="fill: #fa4d56; stroke: #fa4d56; stroke-width: 1.5; stroke-linejoin: miter"/>
   </g>
   <g id="patch_69">
    <path d="M 1402.026376 187.653829 
C 1403.223566 187.653829 1404.371884 187.17818 1405.218425 186.331639 
C 1406.064967 185.485097 1406.540616 184.336779 1406.540616 183.139589 
C 1406.540616 181.942399 1406.064967 180.794081 1405.218425 179.94754 
C 1404.371884 179.100998 1403.223566 178.62535 1402.026376 178.62535 
C 1400.829186 178.62535 1399.680868 179.100998 1398.834327 179.94754 
C 1397.987785 180.794081 1397.512137 181.942399 1397.512137 183.139589 
C 1397.512137 184.336779 1397.987785 185.485097 1398.834327 186.331639 
C 1399.680868 187.17818 1400.829186 187.653829 1402.026376 187.653829 
z
" clip-path="url(#p1b30d86682)" style="fill: #002d9c; stroke: #002d9c; stroke-width: 1.5; stroke-linejoin: miter"/>
   </g>
   <g id="patch_70">
    <path d="M 1402.026376 239.972706 
C 1404.81982 239.972706 1407.499228 238.862859 1409.474491 236.887596 
C 1411.449754 234.912333 1412.559602 232.232925 1412.559602 229.439481 
C 1412.559602 226.646037 1411.449754 223.966629 1409.474491 221.991366 
C 1407.499228 220.016103 1404.81982 218.906256 1402.026376 218.906256 
C 1399.232932 218.906256 1396.553524 220.016103 1394.578261 221.991366 
C 1392.602998 223.966629 1391.493151 226.646037 1391.493151 229.439481 
C 1391.493151 232.232925 1392.602998 234.912333 1394.578261 236.887596 
C 1396.553524 238.862859 1399.232932 239.972706 1402.026376 239.972706 
z
" clip-path="url(#p1b30d86682)" style="fill: #002d9c; stroke: #002d9c; stroke-width: 2; stroke-linejoin: miter"/>
   </g>
   <g id="patch_71">
    <path d="M 1448.326268 280.253612 
C 1449.523458 280.253612 1450.671776 279.777964 1451.518317 278.931422 
C 1452.364859 278.084881 1452.840507 276.936563 1452.840507 275.739373 
C 1452.840507 274.542183 1452.364859 273.393865 1451.518317 272.547324 
C 1450.671776 271.700782 1449.523458 271.225134 1448.326268 271.225134 
C 1447.129078 271.225134 1445.98076 271.700782 1445.134219 272.547324 
C 1444.287677 273.393865 1443.812029 274.542183 1443.812029 275.739373 
C 1443.812029 276.936563 1444.287677 278.084881 1445.134219 278.931422 
C 1445.98076 279.777964 1447.129078 280.253612 1448.326268 280.253612 
z
" clip-path="url(#p1b30d86682)" style="fill: #002d9c; stroke: #002d9c; stroke-width: 1.5; stroke-linejoin: miter"/>
   </g>
   <g id="patch_72">
    <path d="M 1479.578695 290.786838 
L 1509.673625 290.786838 
L 1509.673625 260.691908 
L 1479.578695 260.691908 
z
" clip-path="url(#p1b30d86682)" style="fill: #fa4d56; stroke: #fa4d56; stroke-width: 1.5; stroke-linejoin: miter"/>
   </g>
   <g id="patch_73">
    <path d="M 1726.125619 48.754153 
C 1727.32281 48.754153 1728.471127 48.278504 1729.317669 47.431963 
C 1730.16421 46.585421 1730.639859 45.437104 1730.639859 44.239914 
C 1730.639859 43.042723 1730.16421 41.894406 1729.317669 41.047864 
C 1728.471127 40.201323 1727.32281 39.725674 1726.125619 39.725674 
C 1724.928429 39.725674 1723.780111 40.201323 1722.93357 41.047864 
C 1722.087029 41.894406 1721.61138 43.042723 1721.61138 44.239914 
C 1721.61138 45.437104 1722.087029 46.585421 1722.93357 47.431963 
C 1723.780111 48.278504 1724.928429 48.754153 1726.125619 48.754153 
z
" clip-path="url(#p1b30d86682)" style="fill: #002d9c; stroke: #002d9c; stroke-width: 1.5; stroke-linejoin: miter"/>
   </g>
   <g id="patch_74">
    <path d="M 1726.125619 193.672815 
C 1728.919063 193.672815 1731.598471 192.562968 1733.573735 190.587704 
C 1735.548998 188.612441 1736.658845 185.933033 1736.658845 183.139589 
C 1736.658845 180.346145 1735.548998 177.666737 1733.573735 175.691474 
C 1731.598471 173.716211 1728.919063 172.606364 1726.125619 172.606364 
C 1723.332175 172.606364 1720.652767 173.716211 1718.677504 175.691474 
C 1716.702241 177.666737 1715.592394 180.346145 1715.592394 183.139589 
C 1715.592394 185.933033 1716.702241 188.612441 1718.677504 190.587704 
C 1720.652767 192.562968 1723.332175 193.672815 1726.125619 193.672815 
z
" clip-path="url(#p1b30d86682)" style="fill: #002d9c; stroke: #002d9c; stroke-width: 2; stroke-linejoin: miter"/>
   </g>
   <g id="patch_75">
    <path d="M 1757.378046 59.287378 
L 1787.472976 59.287378 
L 1787.472976 29.192449 
L 1757.378046 29.192449 
z
" clip-path="url(#p1b30d86682)" style="fill: #fa4d56; stroke: #fa4d56; stroke-width: 1.5; stroke-linejoin: miter"/>
   </g>
   <g id="patch_76">
    <path d="M 1772.425511 187.653829 
C 1773.622702 187.653829 1774.771019 187.17818 1775.617561 186.331639 
C 1776.464102 185.485097 1776.939751 184.336779 1776.939751 183.139589 
C 1776.939751 181.942399 1776.464102 180.794081 1775.617561 179.94754 
C 1774.771019 179.100998 1773.622702 178.62535 1772.425511 178.62535 
C 1771.228321 178.62535 1770.080003 179.100998 1769.233462 179.94754 
C 1768.386921 180.794081 1767.911272 181.942399 1767.911272 183.139589 
C 1767.911272 184.336779 1768.386921 185.485097 1769.233462 186.331639 
C 1770.080003 187.17818 1771.228321 187.653829 1772.425511 187.653829 
z
" clip-path="url(#p1b30d86682)" style="fill: #002d9c; stroke: #002d9c; stroke-width: 1.5; stroke-linejoin: miter"/>
   </g>
   <g id="patch_77">
    <path d="M 1772.425511 239.972706 
C 1775.218955 239.972706 1777.898363 238.862859 1779.873626 236.887596 
C 1781.84889 234.912333 1782.958737 232.232925 1782.958737 229.439481 
C 1782.958737 226.646037 1781.84889 223.966629 1779.873626 221.991366 
C 1777.898363 220.016103 1775.218955 218.906256 1772.425511 218.906256 
C 1769.632067 218.906256 1766.952659 220.016103 1764.977396 221.991366 
C 1763.002133 223.966629 1761.892286 226.646037 1761.892286 229.439481 
C 1761.892286 232.232925 1763.002133 234.912333 1764.977396 236.887596 
C 1766.952659 238.862859 1769.632067 239.972706 1772.425511 239.972706 
z
" clip-path="url(#p1b30d86682)" style="fill: #002d9c; stroke: #002d9c; stroke-width: 2; stroke-linejoin: miter"/>
   </g>
   <g id="patch_78">
    <path d="M 1818.725403 48.754153 
C 1819.922593 48.754153 1821.070911 48.278504 1821.917453 47.431963 
C 1822.763994 46.585421 1823.239643 45.437104 1823.239643 44.239914 
C 1823.239643 43.042723 1822.763994 41.894406 1821.917453 41.047864 
C 1821.070911 40.201323 1819.922593 39.725674 1818.725403 39.725674 
C 1817.528213 39.725674 1816.379895 40.201323 1815.533354 41.047864 
C 1814.686812 41.894406 1814.211164 43.042723 1814.211164 44.239914 
C 1814.211164 45.437104 1814.686812 46.585421 1815.533354 47.431963 
C 1816.379895 48.278504 1817.528213 48.754153 1818.725403 48.754153 
z
" clip-path="url(#p1b30d86682)" style="fill: #33b1ff; stroke: #33b1ff; stroke-width: 1.5; stroke-linejoin: miter"/>
   </g>
   <g id="patch_79">
    <path d="M 1818.725403 233.953721 
C 1819.922593 233.953721 1821.070911 233.478072 1821.917453 232.63153 
C 1822.763994 231.784989 1823.239643 230.636671 1823.239643 229.439481 
C 1823.239643 228.242291 1822.763994 227.093973 1821.917453 226.247432 
C 1821.070911 225.40089 1819.922593 224.925242 1818.725403 224.925242 
C 1817.528213 224.925242 1816.379895 225.40089 1815.533354 226.247432 
C 1814.686812 227.093973 1814.211164 228.242291 1814.211164 229.439481 
C 1814.211164 230.636671 1814.686812 231.784989 1815.533354 232.63153 
C 1816.379895 233.478072 1817.528213 233.953721 1818.725403 233.953721 
z
" clip-path="url(#p1b30d86682)" style="fill: #33b1ff; stroke: #33b1ff; stroke-width: 1.5; stroke-linejoin: miter"/>
   </g>
   <g id="patch_80">
    <path d="M 1849.97783 198.187054 
L 1880.07276 198.187054 
L 1880.07276 168.092124 
L 1849.97783 168.092124 
z
" clip-path="url(#p1b30d86682)" style="fill: #a8a8a8; stroke: #a8a8a8; stroke-width: 1.5; stroke-linejoin: miter"/>
   </g>
   <g id="patch_81">
    <path d="M 1942.577614 244.486946 
L 1972.672544 244.486946 
L 1972.672544 214.392016 
L 1942.577614 214.392016 
z
" clip-path="url(#p1b30d86682)" style="fill: #a8a8a8; stroke: #a8a8a8; stroke-width: 1.5; stroke-linejoin: miter"/>
   </g>
   <g id="patch_82">
    <path d="M 1988.877506 244.486946 
L 2018.972436 244.486946 
L 2018.972436 214.392016 
L 1988.877506 214.392016 
z
" clip-path="url(#p1b30d86682)" style="fill: #a8a8a8; stroke: #a8a8a8; stroke-width: 1.5; stroke-linejoin: miter"/>
   </g>
   <g id="patch_83">
    <path d="M 2174.077073 244.486946 
L 2204.172003 244.486946 
L 2204.172003 214.392016 
L 2174.077073 214.392016 
z
" clip-path="url(#p1b30d86682)" style="fill: #fa4d56; stroke: #fa4d56; stroke-width: 1.5; stroke-linejoin: miter"/>
   </g>
   <g id="patch_84">
    <path d="M 2174.077073 290.786838 
L 2204.172003 290.786838 
L 2204.172003 260.691908 
L 2174.077073 260.691908 
z
" clip-path="url(#p1b30d86682)" style="fill: #a8a8a8; stroke: #a8a8a8; stroke-width: 1.5; stroke-linejoin: miter"/>
   </g>
   <g id="patch_85">
    <path d="M 2199.657764 280.253612 
C 2199.657764 277.461099 2198.547259 274.780103 2196.572653 272.805497 
C 2194.598048 270.830892 2191.917052 269.720387 2189.124538 269.720387 
C 2186.332025 269.720387 2183.651029 270.830892 2181.676423 272.805497 
C 2179.701818 274.780103 2178.591313 277.461099 2178.591313 280.253612 
" clip-path="url(#p1b30d86682)" style="fill: none; stroke: #000000; stroke-width: 2; stroke-linejoin: miter"/>
   </g>
   <g id="line2d_58">
    <path d="M 2189.124538 280.253612 
L 2199.657764 269.720387 
" clip-path="url(#p1b30d86682)" style="fill: none; stroke: #000000; stroke-width: 2; stroke-linecap: square"/>
   </g>
   <g id="patch_86">
    <path d="M 2235.42443 233.953721 
C 2236.62162 233.953721 2237.769938 233.478072 2238.61648 232.63153 
C 2239.463021 231.784989 2239.93867 230.636671 2239.93867 229.439481 
C 2239.93867 228.242291 2239.463021 227.093973 2238.61648 226.247432 
C 2237.769938 225.40089 2236.62162 224.925242 2235.42443 224.925242 
C 2234.22724 224.925242 2233.078922 225.40089 2232.232381 226.247432 
C 2231.385839 227.093973 2230.910191 228.242291 2230.910191 229.439481 
C 2230.910191 230.636671 2231.385839 231.784989 2232.232381 232.63153 
C 2233.078922 233.478072 2234.22724 233.953721 2235.42443 233.953721 
z
" clip-path="url(#p1b30d86682)" style="fill: #002d9c; stroke: #002d9c; stroke-width: 1.5; stroke-linejoin: miter"/>
   </g>
   <g id="patch_87">
    <path d="M 2266.676857 244.486946 
L 2296.771787 244.486946 
L 2296.771787 214.392016 
L 2266.676857 214.392016 
z
" clip-path="url(#p1b30d86682)" style="fill: #fa4d56; stroke: #fa4d56; stroke-width: 1.5; stroke-linejoin: miter"/>
   </g>
   <g id="patch_88">
    <path d="M 2312.976749 59.287378 
L 2343.071679 59.287378 
L 2343.071679 29.192449 
L 2312.976749 29.192449 
z
" clip-path="url(#p1b30d86682)" style="fill: #a8a8a8; stroke: #a8a8a8; stroke-width: 1.5; stroke-linejoin: miter"/>
   </g>
   <g id="patch_89">
    <path d="M 2338.557439 48.754153 
C 2338.557439 45.961639 2337.446934 43.280643 2335.472329 41.306038 
C 2333.497724 39.331433 2330.816728 38.220928 2328.024214 38.220928 
C 2325.2317 38.220928 2322.550704 39.331433 2320.576099 41.306038 
C 2318.601494 43.280643 2317.490989 45.961639 2317.490989 48.754153 
" clip-path="url(#p1b30d86682)" style="fill: none; stroke: #000000; stroke-width: 2; stroke-linejoin: miter"/>
   </g>
   <g id="line2d_59">
    <path d="M 2328.024214 48.754153 
L 2338.557439 38.220928 
" clip-path="url(#p1b30d86682)" style="fill: none; stroke: #000000; stroke-width: 2; stroke-linecap: square"/>
   </g>
   <g id="patch_90">
    <path d="M 2359.276641 244.486946 
L 2389.371571 244.486946 
L 2389.371571 214.392016 
L 2359.276641 214.392016 
z
" clip-path="url(#p1b30d86682)" style="fill: #a8a8a8; stroke: #a8a8a8; stroke-width: 1.5; stroke-linejoin: miter"/>
   </g>
   <g id="patch_91">
    <path d="M 2384.857331 233.953721 
C 2384.857331 231.161207 2383.746826 228.480211 2381.772221 226.505605 
C 2379.797616 224.531 2377.11662 223.420495 2374.324106 223.420495 
C 2371.531592 223.420495 2368.850596 224.531 2366.875991 226.505605 
C 2364.901385 228.480211 2363.79088 231.161207 2363.79088 233.953721 
" clip-path="url(#p1b30d86682)" style="fill: none; stroke: #000000; stroke-width: 2; stroke-linejoin: miter"/>
   </g>
   <g id="line2d_60">
    <path d="M 2374.324106 233.953721 
L 2384.857331 223.420495 
" clip-path="url(#p1b30d86682)" style="fill: none; stroke: #000000; stroke-width: 2; stroke-linecap: square"/>
   </g>
   <g id="line2d_61">
    <path d="M 198.229187 235.458467 
L 198.229187 223.420495 
" clip-path="url(#p1b30d86682)" style="fill: none; stroke: #ffffff; stroke-width: 2; stroke-linecap: square"/>
   </g>
   <g id="line2d_62">
    <path d="M 192.210201 229.439481 
L 204.248173 229.439481 
" clip-path="url(#p1b30d86682)" style="fill: none; stroke: #ffffff; stroke-width: 2; stroke-linecap: square"/>
   </g>
   <g id="line2d_63">
    <path d="M 429.728646 189.158575 
L 429.728646 177.120603 
" clip-path="url(#p1b30d86682)" style="fill: none; stroke: #ffffff; stroke-width: 2; stroke-linecap: square"/>
   </g>
   <g id="line2d_64">
    <path d="M 423.70966 183.139589 
L 435.747632 183.139589 
" clip-path="url(#p1b30d86682)" style="fill: none; stroke: #ffffff; stroke-width: 2; stroke-linecap: square"/>
   </g>
   <g id="line2d_65">
    <path d="M 476.028538 235.458467 
L 476.028538 223.420495 
" clip-path="url(#p1b30d86682)" style="fill: none; stroke: #ffffff; stroke-width: 2; stroke-linecap: square"/>
   </g>
   <g id="line2d_66">
    <path d="M 470.009552 229.439481 
L 482.047524 229.439481 
" clip-path="url(#p1b30d86682)" style="fill: none; stroke: #ffffff; stroke-width: 2; stroke-linecap: square"/>
   </g>
   <g id="line2d_67">
    <path d="M 707.527998 235.458467 
L 707.527998 223.420495 
" clip-path="url(#p1b30d86682)" style="fill: none; stroke: #ffffff; stroke-width: 2; stroke-linecap: square"/>
   </g>
   <g id="line2d_68">
    <path d="M 701.509012 229.439481 
L 713.546984 229.439481 
" clip-path="url(#p1b30d86682)" style="fill: none; stroke: #ffffff; stroke-width: 2; stroke-linecap: square"/>
   </g>
   <g id="line2d_69">
    <path d="M 939.027457 189.158575 
L 939.027457 177.120603 
" clip-path="url(#p1b30d86682)" style="fill: none; stroke: #ffffff; stroke-width: 2; stroke-linecap: square"/>
   </g>
   <g id="line2d_70">
    <path d="M 933.008471 183.139589 
L 945.046443 183.139589 
" clip-path="url(#p1b30d86682)" style="fill: none; stroke: #ffffff; stroke-width: 2; stroke-linecap: square"/>
   </g>
   <g id="line2d_71">
    <path d="M 985.327349 235.458467 
L 985.327349 223.420495 
" clip-path="url(#p1b30d86682)" style="fill: none; stroke: #ffffff; stroke-width: 2; stroke-linecap: square"/>
   </g>
   <g id="line2d_72">
    <path d="M 979.308363 229.439481 
L 991.346335 229.439481 
" clip-path="url(#p1b30d86682)" style="fill: none; stroke: #ffffff; stroke-width: 2; stroke-linecap: square"/>
   </g>
   <g id="line2d_73">
    <path d="M 1402.026376 235.458467 
L 1402.026376 223.420495 
" clip-path="url(#p1b30d86682)" style="fill: none; stroke: #ffffff; stroke-width: 2; stroke-linecap: square"/>
   </g>
   <g id="line2d_74">
    <path d="M 1396.00739 229.439481 
L 1408.045362 229.439481 
" clip-path="url(#p1b30d86682)" style="fill: none; stroke: #ffffff; stroke-width: 2; stroke-linecap: square"/>
   </g>
   <g id="line2d_75">
    <path d="M 1726.125619 189.158575 
L 1726.125619 177.120603 
" clip-path="url(#p1b30d86682)" style="fill: none; stroke: #ffffff; stroke-width: 2; stroke-linecap: square"/>
   </g>
   <g id="line2d_76">
    <path d="M 1720.106633 183.139589 
L 1732.144605 183.139589 
" clip-path="url(#p1b30d86682)" style="fill: none; stroke: #ffffff; stroke-width: 2; stroke-linecap: square"/>
   </g>
   <g id="line2d_77">
    <path d="M 1772.425511 235.458467 
L 1772.425511 223.420495 
" clip-path="url(#p1b30d86682)" style="fill: none; stroke: #ffffff; stroke-width: 2; stroke-linecap: square"/>
   </g>
   <g id="line2d_78">
    <path d="M 1766.406525 229.439481 
L 1778.444497 229.439481 
" clip-path="url(#p1b30d86682)" style="fill: none; stroke: #ffffff; stroke-width: 2; stroke-linecap: square"/>
   </g>
   <g id="text_1">
    <g clip-path="url(#p1b30d86682)">
     <!-- ${opt}_{0}$ -->
     <g transform="translate(36.917483 48.69089) scale(0.1625 -0.1625)">
      <defs>
       <path id="DejaVuSans-Oblique-6f" d="M 1625 -91 
Q 1009 -91 651 289 
Q 294 669 294 1325 
Q 294 1706 417 2101 
Q 541 2497 738 2766 
Q 1047 3184 1428 3384 
Q 1809 3584 2291 3584 
Q 2888 3584 3255 3212 
Q 3622 2841 3622 2241 
Q 3622 1825 3500 1412 
Q 3378 1000 3181 728 
Q 2875 309 2494 109 
Q 2113 -91 1625 -91 
z
M 891 1344 
Q 891 869 1089 633 
Q 1288 397 1691 397 
Q 2269 397 2648 901 
Q 3028 1406 3028 2181 
Q 3028 2634 2825 2865 
Q 2622 3097 2228 3097 
Q 1903 3097 1650 2945 
Q 1397 2794 1197 2484 
Q 1050 2253 970 1956 
Q 891 1659 891 1344 
z
" transform="scale(0.015625)"/>
       <path id="DejaVuSans-Oblique-70" d="M 3175 2156 
Q 3175 2616 2975 2859 
Q 2775 3103 2400 3103 
Q 2144 3103 1911 2972 
Q 1678 2841 1497 2591 
Q 1319 2344 1212 1994 
Q 1106 1644 1106 1300 
Q 1106 863 1306 627 
Q 1506 391 1875 391 
Q 2147 391 2380 519 
Q 2613 647 2778 891 
Q 2956 1147 3065 1494 
Q 3175 1841 3175 2156 
z
M 1394 2969 
Q 1625 3272 1939 3428 
Q 2253 3584 2638 3584 
Q 3175 3584 3472 3232 
Q 3769 2881 3769 2247 
Q 3769 1728 3584 1258 
Q 3400 788 3053 416 
Q 2822 169 2531 39 
Q 2241 -91 1919 -91 
Q 1547 -91 1294 64 
Q 1041 219 916 525 
L 556 -1331 
L -19 -1331 
L 922 3500 
L 1497 3500 
L 1394 2969 
z
" transform="scale(0.015625)"/>
       <path id="DejaVuSans-Oblique-74" d="M 2706 3500 
L 2619 3053 
L 1472 3053 
L 1100 1153 
Q 1081 1047 1072 975 
Q 1063 903 1063 863 
Q 1063 663 1183 572 
Q 1303 481 1569 481 
L 2150 481 
L 2053 0 
L 1503 0 
Q 991 0 739 200 
Q 488 400 488 806 
Q 488 878 497 964 
Q 506 1050 525 1153 
L 897 3053 
L 409 3053 
L 500 3500 
L 978 3500 
L 1172 4494 
L 1747 4494 
L 1556 3500 
L 2706 3500 
z
" transform="scale(0.015625)"/>
       <path id="DejaVuSans-30" d="M 2034 4250 
Q 1547 4250 1301 3770 
Q 1056 3291 1056 2328 
Q 1056 1369 1301 889 
Q 1547 409 2034 409 
Q 2525 409 2770 889 
Q 3016 1369 3016 2328 
Q 3016 3291 2770 3770 
Q 2525 4250 2034 4250 
z
M 2034 4750 
Q 2819 4750 3233 4129 
Q 3647 3509 3647 2328 
Q 3647 1150 3233 529 
Q 2819 -91 2034 -91 
Q 1250 -91 836 529 
Q 422 1150 422 2328 
Q 422 3509 836 4129 
Q 1250 4750 2034 4750 
z
" transform="scale(0.015625)"/>
      </defs>
      <use xlink:href="#DejaVuSans-Oblique-6f" transform="translate(0 0.78125)"/>
      <use xlink:href="#DejaVuSans-Oblique-70" transform="translate(61.181641 0.78125)"/>
      <use xlink:href="#DejaVuSans-Oblique-74" transform="translate(124.658203 0.78125)"/>
      <use xlink:href="#DejaVuSans-30" transform="translate(163.867188 -15.625) scale(0.7)"/>
     </g>
    </g>
   </g>
   <g id="text_2">
    <g clip-path="url(#p1b30d86682)">
     <!-- ${opt}_{1}$ -->
     <g transform="translate(36.917483 94.990782) scale(0.1625 -0.1625)">
      <defs>
       <path id="DejaVuSans-31" d="M 794 531 
L 1825 531 
L 1825 4091 
L 703 3866 
L 703 4441 
L 1819 4666 
L 2450 4666 
L 2450 531 
L 3481 531 
L 3481 0 
L 794 0 
L 794 531 
z
" transform="scale(0.015625)"/>
      </defs>
      <use xlink:href="#DejaVuSans-Oblique-6f" transform="translate(0 0.78125)"/>
      <use xlink:href="#DejaVuSans-Oblique-70" transform="translate(61.181641 0.78125)"/>
      <use xlink:href="#DejaVuSans-Oblique-74" transform="translate(124.658203 0.78125)"/>
      <use xlink:href="#DejaVuSans-31" transform="translate(163.867188 -15.625) scale(0.7)"/>
     </g>
    </g>
   </g>
   <g id="text_3">
    <g clip-path="url(#p1b30d86682)">
     <!-- ${opt}_{2}$ -->
     <g transform="translate(36.917483 141.290674) scale(0.1625 -0.1625)">
      <defs>
       <path id="DejaVuSans-32" d="M 1228 531 
L 3431 531 
L 3431 0 
L 469 0 
L 469 531 
Q 828 903 1448 1529 
Q 2069 2156 2228 2338 
Q 2531 2678 2651 2914 
Q 2772 3150 2772 3378 
Q 2772 3750 2511 3984 
Q 2250 4219 1831 4219 
Q 1534 4219 1204 4116 
Q 875 4013 500 3803 
L 500 4441 
Q 881 4594 1212 4672 
Q 1544 4750 1819 4750 
Q 2544 4750 2975 4387 
Q 3406 4025 3406 3419 
Q 3406 3131 3298 2873 
Q 3191 2616 2906 2266 
Q 2828 2175 2409 1742 
Q 1991 1309 1228 531 
z
" transform="scale(0.015625)"/>
      </defs>
      <use xlink:href="#DejaVuSans-Oblique-6f" transform="translate(0 0.78125)"/>
      <use xlink:href="#DejaVuSans-Oblique-70" transform="translate(61.181641 0.78125)"/>
      <use xlink:href="#DejaVuSans-Oblique-74" transform="translate(124.658203 0.78125)"/>
      <use xlink:href="#DejaVuSans-32" transform="translate(163.867188 -15.625) scale(0.7)"/>
     </g>
    </g>
   </g>
   <g id="text_4">
    <g clip-path="url(#p1b30d86682)">
     <!-- ${opt}_{3}$ -->
     <g transform="translate(36.917483 187.590566) scale(0.1625 -0.1625)">
      <defs>
       <path id="DejaVuSans-33" d="M 2597 2516 
Q 3050 2419 3304 2112 
Q 3559 1806 3559 1356 
Q 3559 666 3084 287 
Q 2609 -91 1734 -91 
Q 1441 -91 1130 -33 
Q 819 25 488 141 
L 488 750 
Q 750 597 1062 519 
Q 1375 441 1716 441 
Q 2309 441 2620 675 
Q 2931 909 2931 1356 
Q 2931 1769 2642 2001 
Q 2353 2234 1838 2234 
L 1294 2234 
L 1294 2753 
L 1863 2753 
Q 2328 2753 2575 2939 
Q 2822 3125 2822 3475 
Q 2822 3834 2567 4026 
Q 2313 4219 1838 4219 
Q 1578 4219 1281 4162 
Q 984 4106 628 3988 
L 628 4550 
Q 988 4650 1302 4700 
Q 1616 4750 1894 4750 
Q 2613 4750 3031 4423 
Q 3450 4097 3450 3541 
Q 3450 3153 3228 2886 
Q 3006 2619 2597 2516 
z
" transform="scale(0.015625)"/>
      </defs>
      <use xlink:href="#DejaVuSans-Oblique-6f" transform="translate(0 0.78125)"/>
      <use xlink:href="#DejaVuSans-Oblique-70" transform="translate(61.181641 0.78125)"/>
      <use xlink:href="#DejaVuSans-Oblique-74" transform="translate(124.658203 0.78125)"/>
      <use xlink:href="#DejaVuSans-33" transform="translate(163.867188 -15.625) scale(0.7)"/>
     </g>
    </g>
   </g>
   <g id="text_5">
    <g clip-path="url(#p1b30d86682)">
     <!-- ${opt}_{4}$ -->
     <g transform="translate(36.917483 233.890458) scale(0.1625 -0.1625)">
      <defs>
       <path id="DejaVuSans-34" d="M 2419 4116 
L 825 1625 
L 2419 1625 
L 2419 4116 
z
M 2253 4666 
L 3047 4666 
L 3047 1625 
L 3713 1625 
L 3713 1100 
L 3047 1100 
L 3047 0 
L 2419 0 
L 2419 1100 
L 313 1100 
L 313 1709 
L 2253 4666 
z
" transform="scale(0.015625)"/>
      </defs>
      <use xlink:href="#DejaVuSans-Oblique-6f" transform="translate(0 0.78125)"/>
      <use xlink:href="#DejaVuSans-Oblique-70" transform="translate(61.181641 0.78125)"/>
      <use xlink:href="#DejaVuSans-Oblique-74" transform="translate(124.658203 0.78125)"/>
      <use xlink:href="#DejaVuSans-34" transform="translate(163.867188 -15.625) scale(0.7)"/>
     </g>
    </g>
   </g>
   <g id="text_6">
    <g clip-path="url(#p1b30d86682)">
     <!-- ${opt}_{5}$ -->
     <g transform="translate(36.917483 280.19035) scale(0.1625 -0.1625)">
      <defs>
       <path id="DejaVuSans-35" d="M 691 4666 
L 3169 4666 
L 3169 4134 
L 1269 4134 
L 1269 2991 
Q 1406 3038 1543 3061 
Q 1681 3084 1819 3084 
Q 2600 3084 3056 2656 
Q 3513 2228 3513 1497 
Q 3513 744 3044 326 
Q 2575 -91 1722 -91 
Q 1428 -91 1123 -41 
Q 819 9 494 109 
L 494 744 
Q 775 591 1075 516 
Q 1375 441 1709 441 
Q 2250 441 2565 725 
Q 2881 1009 2881 1497 
Q 2881 1984 2565 2268 
Q 2250 2553 1709 2553 
Q 1456 2553 1204 2497 
Q 953 2441 691 2322 
L 691 4666 
z
" transform="scale(0.015625)"/>
      </defs>
      <use xlink:href="#DejaVuSans-Oblique-6f" transform="translate(0 0.78125)"/>
      <use xlink:href="#DejaVuSans-Oblique-70" transform="translate(61.181641 0.78125)"/>
      <use xlink:href="#DejaVuSans-Oblique-74" transform="translate(124.658203 0.78125)"/>
      <use xlink:href="#DejaVuSans-35" transform="translate(163.867188 -15.625) scale(0.7)"/>
     </g>
    </g>
   </g>
   <g id="text_7">
    <g clip-path="url(#p1b30d86682)">
     <!-- 3 -->
     <g transform="translate(85.257451 315.246401) scale(0.104 -0.104)">
      <use xlink:href="#DejaVuSans-33"/>
     </g>
    </g>
   </g>
   <g id="text_8">
    <g clip-path="url(#p1b30d86682)">
     <!-- out -->
     <g transform="translate(44.755569 326.523249) scale(0.1625 -0.1625)">
      <defs>
       <path id="DejaVuSans-6f" d="M 1959 3097 
Q 1497 3097 1228 2736 
Q 959 2375 959 1747 
Q 959 1119 1226 758 
Q 1494 397 1959 397 
Q 2419 397 2687 759 
Q 2956 1122 2956 1747 
Q 2956 2369 2687 2733 
Q 2419 3097 1959 3097 
z
M 1959 3584 
Q 2709 3584 3137 3096 
Q 3566 2609 3566 1747 
Q 3566 888 3137 398 
Q 2709 -91 1959 -91 
Q 1206 -91 779 398 
Q 353 888 353 1747 
Q 353 2609 779 3096 
Q 1206 3584 1959 3584 
z
" transform="scale(0.015625)"/>
       <path id="DejaVuSans-75" d="M 544 1381 
L 544 3500 
L 1119 3500 
L 1119 1403 
Q 1119 906 1312 657 
Q 1506 409 1894 409 
Q 2359 409 2629 706 
Q 2900 1003 2900 1516 
L 2900 3500 
L 3475 3500 
L 3475 0 
L 2900 0 
L 2900 538 
Q 2691 219 2414 64 
Q 2138 -91 1772 -91 
Q 1169 -91 856 284 
Q 544 659 544 1381 
z
M 1991 3584 
L 1991 3584 
z
" transform="scale(0.015625)"/>
       <path id="DejaVuSans-74" d="M 1172 4494 
L 1172 3500 
L 2356 3500 
L 2356 3053 
L 1172 3053 
L 1172 1153 
Q 1172 725 1289 603 
Q 1406 481 1766 481 
L 2356 481 
L 2356 0 
L 1766 0 
Q 1100 0 847 248 
Q 594 497 594 1153 
L 594 3053 
L 172 3053 
L 172 3500 
L 594 3500 
L 594 4494 
L 1172 4494 
z
" transform="scale(0.015625)"/>
      </defs>
      <use xlink:href="#DejaVuSans-6f"/>
      <use xlink:href="#DejaVuSans-75" transform="translate(61.181641 0)"/>
      <use xlink:href="#DejaVuSans-74" transform="translate(124.560547 0)"/>
     </g>
    </g>
   </g>
   <g id="line2d_79">
    <path d="M 105.629403 37.29493 
L 105.629403 67.389859 
" clip-path="url(#p1b30d86682)" style="fill: none; stroke-dasharray: 3.7,1.6; stroke-dashoffset: 0; stroke: #000000"/>
   </g>
   <g id="text_9">
    <g clip-path="url(#p1b30d86682)">
     <!-- S1 -->
     <g transform="translate(97.367294 34.556178) scale(0.13 -0.13)">
      <defs>
       <path id="DejaVuSans-53" d="M 3425 4513 
L 3425 3897 
Q 3066 4069 2747 4153 
Q 2428 4238 2131 4238 
Q 1616 4238 1336 4038 
Q 1056 3838 1056 3469 
Q 1056 3159 1242 3001 
Q 1428 2844 1947 2747 
L 2328 2669 
Q 3034 2534 3370 2195 
Q 3706 1856 3706 1288 
Q 3706 609 3251 259 
Q 2797 -91 1919 -91 
Q 1588 -91 1214 -16 
Q 841 59 441 206 
L 441 856 
Q 825 641 1194 531 
Q 1563 422 1919 422 
Q 2459 422 2753 634 
Q 3047 847 3047 1241 
Q 3047 1584 2836 1778 
Q 2625 1972 2144 2069 
L 1759 2144 
Q 1053 2284 737 2584 
Q 422 2884 422 3419 
Q 422 4038 858 4394 
Q 1294 4750 2059 4750 
Q 2388 4750 2728 4690 
Q 3069 4631 3425 4513 
z
" transform="scale(0.015625)"/>
      </defs>
      <use xlink:href="#DejaVuSans-53"/>
      <use xlink:href="#DejaVuSans-31" transform="translate(63.476562 0)"/>
     </g>
    </g>
   </g>
   <g id="line2d_80">
    <path d="M 105.629403 67.389859 
L 105.629403 113.689751 
" clip-path="url(#p1b30d86682)" style="fill: none; stroke-dasharray: 3.7,1.6; stroke-dashoffset: 0; stroke: #000000"/>
   </g>
   <g id="line2d_81">
    <path d="M 105.629403 113.689751 
L 105.629403 159.989643 
" clip-path="url(#p1b30d86682)" style="fill: none; stroke-dasharray: 3.7,1.6; stroke-dashoffset: 0; stroke: #000000"/>
   </g>
   <g id="line2d_82">
    <path d="M 105.629403 159.989643 
L 105.629403 206.289535 
" clip-path="url(#p1b30d86682)" style="fill: none; stroke-dasharray: 3.7,1.6; stroke-dashoffset: 0; stroke: #000000"/>
   </g>
   <g id="line2d_83">
    <path d="M 105.629403 206.289535 
L 105.629403 252.589427 
" clip-path="url(#p1b30d86682)" style="fill: none; stroke-dasharray: 3.7,1.6; stroke-dashoffset: 0; stroke: #000000"/>
   </g>
   <g id="line2d_84">
    <path d="M 105.629403 252.589427 
L 105.629403 298.889319 
" clip-path="url(#p1b30d86682)" style="fill: none; stroke-dasharray: 3.7,1.6; stroke-dashoffset: 0; stroke: #000000"/>
   </g>
   <g id="text_10">
    <g clip-path="url(#p1b30d86682)">
     <!-- H -->
     <g transform="translate(147.041092 186.726777) scale(0.13 -0.13)">
      <defs>
       <path id="DejaVuSans-48" d="M 628 4666 
L 1259 4666 
L 1259 2753 
L 3553 2753 
L 3553 4666 
L 4184 4666 
L 4184 0 
L 3553 0 
L 3553 2222 
L 1259 2222 
L 1259 0 
L 628 0 
L 628 4666 
z
" transform="scale(0.015625)"/>
      </defs>
      <use xlink:href="#DejaVuSans-48"/>
     </g>
    </g>
   </g>
   <g id="line2d_85">
    <path d="M 313.978917 37.29493 
L 313.978917 67.389859 
" clip-path="url(#p1b30d86682)" style="fill: none; stroke-dasharray: 3.7,1.6; stroke-dashoffset: 0; stroke: #000000"/>
   </g>
   <g id="text_11">
    <g clip-path="url(#p1b30d86682)">
     <!-- S2_Bell_measurement -->
     <g transform="translate(241.80251 34.556178) scale(0.13 -0.13)">
      <defs>
       <path id="DejaVuSans-5f" d="M 3263 -1063 
L 3263 -1509 
L -63 -1509 
L -63 -1063 
L 3263 -1063 
z
" transform="scale(0.015625)"/>
       <path id="DejaVuSans-42" d="M 1259 2228 
L 1259 519 
L 2272 519 
Q 2781 519 3026 730 
Q 3272 941 3272 1375 
Q 3272 1813 3026 2020 
Q 2781 2228 2272 2228 
L 1259 2228 
z
M 1259 4147 
L 1259 2741 
L 2194 2741 
Q 2656 2741 2882 2914 
Q 3109 3088 3109 3444 
Q 3109 3797 2882 3972 
Q 2656 4147 2194 4147 
L 1259 4147 
z
M 628 4666 
L 2241 4666 
Q 2963 4666 3353 4366 
Q 3744 4066 3744 3513 
Q 3744 3084 3544 2831 
Q 3344 2578 2956 2516 
Q 3422 2416 3680 2098 
Q 3938 1781 3938 1306 
Q 3938 681 3513 340 
Q 3088 0 2303 0 
L 628 0 
L 628 4666 
z
" transform="scale(0.015625)"/>
       <path id="DejaVuSans-65" d="M 3597 1894 
L 3597 1613 
L 953 1613 
Q 991 1019 1311 708 
Q 1631 397 2203 397 
Q 2534 397 2845 478 
Q 3156 559 3463 722 
L 3463 178 
Q 3153 47 2828 -22 
Q 2503 -91 2169 -91 
Q 1331 -91 842 396 
Q 353 884 353 1716 
Q 353 2575 817 3079 
Q 1281 3584 2069 3584 
Q 2775 3584 3186 3129 
Q 3597 2675 3597 1894 
z
M 3022 2063 
Q 3016 2534 2758 2815 
Q 2500 3097 2075 3097 
Q 1594 3097 1305 2825 
Q 1016 2553 972 2059 
L 3022 2063 
z
" transform="scale(0.015625)"/>
       <path id="DejaVuSans-6c" d="M 603 4863 
L 1178 4863 
L 1178 0 
L 603 0 
L 603 4863 
z
" transform="scale(0.015625)"/>
       <path id="DejaVuSans-6d" d="M 3328 2828 
Q 3544 3216 3844 3400 
Q 4144 3584 4550 3584 
Q 5097 3584 5394 3201 
Q 5691 2819 5691 2113 
L 5691 0 
L 5113 0 
L 5113 2094 
Q 5113 2597 4934 2840 
Q 4756 3084 4391 3084 
Q 3944 3084 3684 2787 
Q 3425 2491 3425 1978 
L 3425 0 
L 2847 0 
L 2847 2094 
Q 2847 2600 2669 2842 
Q 2491 3084 2119 3084 
Q 1678 3084 1418 2786 
Q 1159 2488 1159 1978 
L 1159 0 
L 581 0 
L 581 3500 
L 1159 3500 
L 1159 2956 
Q 1356 3278 1631 3431 
Q 1906 3584 2284 3584 
Q 2666 3584 2933 3390 
Q 3200 3197 3328 2828 
z
" transform="scale(0.015625)"/>
       <path id="DejaVuSans-61" d="M 2194 1759 
Q 1497 1759 1228 1600 
Q 959 1441 959 1056 
Q 959 750 1161 570 
Q 1363 391 1709 391 
Q 2188 391 2477 730 
Q 2766 1069 2766 1631 
L 2766 1759 
L 2194 1759 
z
M 3341 1997 
L 3341 0 
L 2766 0 
L 2766 531 
Q 2569 213 2275 61 
Q 1981 -91 1556 -91 
Q 1019 -91 701 211 
Q 384 513 384 1019 
Q 384 1609 779 1909 
Q 1175 2209 1959 2209 
L 2766 2209 
L 2766 2266 
Q 2766 2663 2505 2880 
Q 2244 3097 1772 3097 
Q 1472 3097 1187 3025 
Q 903 2953 641 2809 
L 641 3341 
Q 956 3463 1253 3523 
Q 1550 3584 1831 3584 
Q 2591 3584 2966 3190 
Q 3341 2797 3341 1997 
z
" transform="scale(0.015625)"/>
       <path id="DejaVuSans-73" d="M 2834 3397 
L 2834 2853 
Q 2591 2978 2328 3040 
Q 2066 3103 1784 3103 
Q 1356 3103 1142 2972 
Q 928 2841 928 2578 
Q 928 2378 1081 2264 
Q 1234 2150 1697 2047 
L 1894 2003 
Q 2506 1872 2764 1633 
Q 3022 1394 3022 966 
Q 3022 478 2636 193 
Q 2250 -91 1575 -91 
Q 1294 -91 989 -36 
Q 684 19 347 128 
L 347 722 
Q 666 556 975 473 
Q 1284 391 1588 391 
Q 1994 391 2212 530 
Q 2431 669 2431 922 
Q 2431 1156 2273 1281 
Q 2116 1406 1581 1522 
L 1381 1569 
Q 847 1681 609 1914 
Q 372 2147 372 2553 
Q 372 3047 722 3315 
Q 1072 3584 1716 3584 
Q 2034 3584 2315 3537 
Q 2597 3491 2834 3397 
z
" transform="scale(0.015625)"/>
       <path id="DejaVuSans-72" d="M 2631 2963 
Q 2534 3019 2420 3045 
Q 2306 3072 2169 3072 
Q 1681 3072 1420 2755 
Q 1159 2438 1159 1844 
L 1159 0 
L 581 0 
L 581 3500 
L 1159 3500 
L 1159 2956 
Q 1341 3275 1631 3429 
Q 1922 3584 2338 3584 
Q 2397 3584 2469 3576 
Q 2541 3569 2628 3553 
L 2631 2963 
z
" transform="scale(0.015625)"/>
       <path id="DejaVuSans-6e" d="M 3513 2113 
L 3513 0 
L 2938 0 
L 2938 2094 
Q 2938 2591 2744 2837 
Q 2550 3084 2163 3084 
Q 1697 3084 1428 2787 
Q 1159 2491 1159 1978 
L 1159 0 
L 581 0 
L 581 3500 
L 1159 3500 
L 1159 2956 
Q 1366 3272 1645 3428 
Q 1925 3584 2291 3584 
Q 2894 3584 3203 3211 
Q 3513 2838 3513 2113 
z
" transform="scale(0.015625)"/>
      </defs>
      <use xlink:href="#DejaVuSans-53"/>
      <use xlink:href="#DejaVuSans-32" transform="translate(63.476562 0)"/>
      <use xlink:href="#DejaVuSans-5f" transform="translate(127.099609 0)"/>
      <use xlink:href="#DejaVuSans-42" transform="translate(177.099609 0)"/>
      <use xlink:href="#DejaVuSans-65" transform="translate(245.703125 0)"/>
      <use xlink:href="#DejaVuSans-6c" transform="translate(307.226562 0)"/>
      <use xlink:href="#DejaVuSans-6c" transform="translate(335.009766 0)"/>
      <use xlink:href="#DejaVuSans-5f" transform="translate(362.792969 0)"/>
      <use xlink:href="#DejaVuSans-6d" transform="translate(412.792969 0)"/>
      <use xlink:href="#DejaVuSans-65" transform="translate(510.205078 0)"/>
      <use xlink:href="#DejaVuSans-61" transform="translate(571.728516 0)"/>
      <use xlink:href="#DejaVuSans-73" transform="translate(633.007812 0)"/>
      <use xlink:href="#DejaVuSans-75" transform="translate(685.107422 0)"/>
      <use xlink:href="#DejaVuSans-72" transform="translate(748.486328 0)"/>
      <use xlink:href="#DejaVuSans-65" transform="translate(787.349609 0)"/>
      <use xlink:href="#DejaVuSans-6d" transform="translate(848.873047 0)"/>
      <use xlink:href="#DejaVuSans-65" transform="translate(946.285156 0)"/>
      <use xlink:href="#DejaVuSans-6e" transform="translate(1007.808594 0)"/>
      <use xlink:href="#DejaVuSans-74" transform="translate(1071.1875 0)"/>
     </g>
    </g>
   </g>
   <g id="line2d_86">
    <path d="M 313.978917 67.389859 
L 313.978917 113.689751 
" clip-path="url(#p1b30d86682)" style="fill: none; stroke-dasharray: 3.7,1.6; stroke-dashoffset: 0; stroke: #000000"/>
   </g>
   <g id="line2d_87">
    <path d="M 313.978917 113.689751 
L 313.978917 159.989643 
" clip-path="url(#p1b30d86682)" style="fill: none; stroke-dasharray: 3.7,1.6; stroke-dashoffset: 0; stroke: #000000"/>
   </g>
   <g id="line2d_88">
    <path d="M 313.978917 159.989643 
L 313.978917 206.289535 
" clip-path="url(#p1b30d86682)" style="fill: none; stroke-dasharray: 3.7,1.6; stroke-dashoffset: 0; stroke: #000000"/>
   </g>
   <g id="line2d_89">
    <path d="M 313.978917 206.289535 
L 313.978917 252.589427 
" clip-path="url(#p1b30d86682)" style="fill: none; stroke-dasharray: 3.7,1.6; stroke-dashoffset: 0; stroke: #000000"/>
   </g>
   <g id="line2d_90">
    <path d="M 313.978917 252.589427 
L 313.978917 298.889319 
" clip-path="url(#p1b30d86682)" style="fill: none; stroke-dasharray: 3.7,1.6; stroke-dashoffset: 0; stroke: #000000"/>
   </g>
   <g id="text_12">
    <g clip-path="url(#p1b30d86682)">
     <!-- H -->
     <g transform="translate(471.140335 47.827101) scale(0.13 -0.13)">
      <use xlink:href="#DejaVuSans-48"/>
     </g>
    </g>
   </g>
   <g id="text_13">
    <g clip-path="url(#p1b30d86682)">
     <!-- $\mathrm{\left|0\right\rangle}$ -->
     <g transform="translate(560.243322 186.726777) scale(0.13 -0.13)">
      <defs>
       <path id="DejaVuSans-7c" d="M 1344 4891 
L 1344 -1509 
L 813 -1509 
L 813 4891 
L 1344 4891 
z
" transform="scale(0.015625)"/>
       <path id="DejaVuSans-27e9" d="M 1925 2006 
L 1044 -844 
L 513 -844 
L 1394 2006 
L 513 4856 
L 1044 4856 
L 1925 2006 
z
" transform="scale(0.015625)"/>
      </defs>
      <use xlink:href="#DejaVuSans-7c" transform="translate(0 16.625) scale(0.756406)"/>
      <use xlink:href="#DejaVuSans-30" transform="translate(25.479126 0.125)"/>
      <use xlink:href="#DejaVuSans-27e9" transform="translate(89.102173 0.125)"/>
     </g>
    </g>
   </g>
   <g id="text_14">
    <g clip-path="url(#p1b30d86682)">
     <!-- H -->
     <g transform="translate(656.339903 186.726777) scale(0.13 -0.13)">
      <use xlink:href="#DejaVuSans-48"/>
     </g>
    </g>
   </g>
   <g id="text_15">
    <g clip-path="url(#p1b30d86682)">
     <!-- $\mathrm{\left|0\right\rangle}$ -->
     <g transform="translate(652.843106 233.026669) scale(0.13 -0.13)">
      <use xlink:href="#DejaVuSans-7c" transform="translate(0 16.625) scale(0.756406)"/>
      <use xlink:href="#DejaVuSans-30" transform="translate(25.479126 0.125)"/>
      <use xlink:href="#DejaVuSans-27e9" transform="translate(89.102173 0.125)"/>
     </g>
    </g>
   </g>
   <g id="line2d_91">
    <path d="M 823.277727 37.29493 
L 823.277727 67.389859 
" clip-path="url(#p1b30d86682)" style="fill: none; stroke-dasharray: 3.7,1.6; stroke-dashoffset: 0; stroke: #000000"/>
   </g>
   <g id="text_16">
    <g clip-path="url(#p1b30d86682)">
     <!-- S4_Bell_measurement -->
     <g transform="translate(751.101321 34.556178) scale(0.13 -0.13)">
      <use xlink:href="#DejaVuSans-53"/>
      <use xlink:href="#DejaVuSans-34" transform="translate(63.476562 0)"/>
      <use xlink:href="#DejaVuSans-5f" transform="translate(127.099609 0)"/>
      <use xlink:href="#DejaVuSans-42" transform="translate(177.099609 0)"/>
      <use xlink:href="#DejaVuSans-65" transform="translate(245.703125 0)"/>
      <use xlink:href="#DejaVuSans-6c" transform="translate(307.226562 0)"/>
      <use xlink:href="#DejaVuSans-6c" transform="translate(335.009766 0)"/>
      <use xlink:href="#DejaVuSans-5f" transform="translate(362.792969 0)"/>
      <use xlink:href="#DejaVuSans-6d" transform="translate(412.792969 0)"/>
      <use xlink:href="#DejaVuSans-65" transform="translate(510.205078 0)"/>
      <use xlink:href="#DejaVuSans-61" transform="translate(571.728516 0)"/>
      <use xlink:href="#DejaVuSans-73" transform="translate(633.007812 0)"/>
      <use xlink:href="#DejaVuSans-75" transform="translate(685.107422 0)"/>
      <use xlink:href="#DejaVuSans-72" transform="translate(748.486328 0)"/>
      <use xlink:href="#DejaVuSans-65" transform="translate(787.349609 0)"/>
      <use xlink:href="#DejaVuSans-6d" transform="translate(848.873047 0)"/>
      <use xlink:href="#DejaVuSans-65" transform="translate(946.285156 0)"/>
      <use xlink:href="#DejaVuSans-6e" transform="translate(1007.808594 0)"/>
      <use xlink:href="#DejaVuSans-74" transform="translate(1071.1875 0)"/>
     </g>
    </g>
   </g>
   <g id="line2d_92">
    <path d="M 823.277727 67.389859 
L 823.277727 113.689751 
" clip-path="url(#p1b30d86682)" style="fill: none; stroke-dasharray: 3.7,1.6; stroke-dashoffset: 0; stroke: #000000"/>
   </g>
   <g id="line2d_93">
    <path d="M 823.277727 113.689751 
L 823.277727 159.989643 
" clip-path="url(#p1b30d86682)" style="fill: none; stroke-dasharray: 3.7,1.6; stroke-dashoffset: 0; stroke: #000000"/>
   </g>
   <g id="line2d_94">
    <path d="M 823.277727 159.989643 
L 823.277727 206.289535 
" clip-path="url(#p1b30d86682)" style="fill: none; stroke-dasharray: 3.7,1.6; stroke-dashoffset: 0; stroke: #000000"/>
   </g>
   <g id="line2d_95">
    <path d="M 823.277727 206.289535 
L 823.277727 252.589427 
" clip-path="url(#p1b30d86682)" style="fill: none; stroke-dasharray: 3.7,1.6; stroke-dashoffset: 0; stroke: #000000"/>
   </g>
   <g id="line2d_96">
    <path d="M 823.277727 252.589427 
L 823.277727 298.889319 
" clip-path="url(#p1b30d86682)" style="fill: none; stroke-dasharray: 3.7,1.6; stroke-dashoffset: 0; stroke: #000000"/>
   </g>
   <g id="text_17">
    <g clip-path="url(#p1b30d86682)">
     <!-- $\mathrm{\left|0\right\rangle}$ -->
     <g transform="translate(930.642457 279.32656) scale(0.13 -0.13)">
      <use xlink:href="#DejaVuSans-7c" transform="translate(0 16.625) scale(0.756406)"/>
      <use xlink:href="#DejaVuSans-30" transform="translate(25.479126 0.125)"/>
      <use xlink:href="#DejaVuSans-27e9" transform="translate(89.102173 0.125)"/>
     </g>
    </g>
   </g>
   <g id="text_18">
    <g clip-path="url(#p1b30d86682)">
     <!-- H -->
     <g transform="translate(980.439146 47.827101) scale(0.13 -0.13)">
      <use xlink:href="#DejaVuSans-48"/>
     </g>
    </g>
   </g>
   <g id="text_19">
    <g clip-path="url(#p1b30d86682)">
     <!-- $\mathrm{\left|0\right\rangle}$ -->
     <g transform="translate(1069.542133 186.726777) scale(0.13 -0.13)">
      <use xlink:href="#DejaVuSans-7c" transform="translate(0 16.625) scale(0.756406)"/>
      <use xlink:href="#DejaVuSans-30" transform="translate(25.479126 0.125)"/>
      <use xlink:href="#DejaVuSans-27e9" transform="translate(89.102173 0.125)"/>
     </g>
    </g>
   </g>
   <g id="text_20">
    <g clip-path="url(#p1b30d86682)">
     <!-- $\mathrm{\left|0\right\rangle}$ -->
     <g transform="translate(1162.141917 233.026669) scale(0.13 -0.13)">
      <use xlink:href="#DejaVuSans-7c" transform="translate(0 16.625) scale(0.756406)"/>
      <use xlink:href="#DejaVuSans-30" transform="translate(25.479126 0.125)"/>
      <use xlink:href="#DejaVuSans-27e9" transform="translate(89.102173 0.125)"/>
     </g>
    </g>
   </g>
   <g id="line2d_97">
    <path d="M 1263.1267 37.29493 
L 1263.1267 67.389859 
" clip-path="url(#p1b30d86682)" style="fill: none; stroke-dasharray: 3.7,1.6; stroke-dashoffset: 0; stroke: #000000"/>
   </g>
   <g id="text_21">
    <g clip-path="url(#p1b30d86682)">
     <!-- S5_swap_test -->
     <g transform="translate(1219.070919 34.326647) scale(0.13 -0.13)">
      <defs>
       <path id="DejaVuSans-77" d="M 269 3500 
L 844 3500 
L 1563 769 
L 2278 3500 
L 2956 3500 
L 3675 769 
L 4391 3500 
L 4966 3500 
L 4050 0 
L 3372 0 
L 2619 2869 
L 1863 0 
L 1184 0 
L 269 3500 
z
" transform="scale(0.015625)"/>
       <path id="DejaVuSans-70" d="M 1159 525 
L 1159 -1331 
L 581 -1331 
L 581 3500 
L 1159 3500 
L 1159 2969 
Q 1341 3281 1617 3432 
Q 1894 3584 2278 3584 
Q 2916 3584 3314 3078 
Q 3713 2572 3713 1747 
Q 3713 922 3314 415 
Q 2916 -91 2278 -91 
Q 1894 -91 1617 61 
Q 1341 213 1159 525 
z
M 3116 1747 
Q 3116 2381 2855 2742 
Q 2594 3103 2138 3103 
Q 1681 3103 1420 2742 
Q 1159 2381 1159 1747 
Q 1159 1113 1420 752 
Q 1681 391 2138 391 
Q 2594 391 2855 752 
Q 3116 1113 3116 1747 
z
" transform="scale(0.015625)"/>
      </defs>
      <use xlink:href="#DejaVuSans-53"/>
      <use xlink:href="#DejaVuSans-35" transform="translate(63.476562 0)"/>
      <use xlink:href="#DejaVuSans-5f" transform="translate(127.099609 0)"/>
      <use xlink:href="#DejaVuSans-73" transform="translate(177.099609 0)"/>
      <use xlink:href="#DejaVuSans-77" transform="translate(229.199219 0)"/>
      <use xlink:href="#DejaVuSans-61" transform="translate(310.986328 0)"/>
      <use xlink:href="#DejaVuSans-70" transform="translate(372.265625 0)"/>
      <use xlink:href="#DejaVuSans-5f" transform="translate(435.742188 0)"/>
      <use xlink:href="#DejaVuSans-74" transform="translate(485.742188 0)"/>
      <use xlink:href="#DejaVuSans-65" transform="translate(524.951172 0)"/>
      <use xlink:href="#DejaVuSans-73" transform="translate(586.474609 0)"/>
      <use xlink:href="#DejaVuSans-74" transform="translate(638.574219 0)"/>
     </g>
    </g>
   </g>
   <g id="line2d_98">
    <path d="M 1263.1267 67.389859 
L 1263.1267 113.689751 
" clip-path="url(#p1b30d86682)" style="fill: none; stroke-dasharray: 3.7,1.6; stroke-dashoffset: 0; stroke: #000000"/>
   </g>
   <g id="line2d_99">
    <path d="M 1263.1267 113.689751 
L 1263.1267 159.989643 
" clip-path="url(#p1b30d86682)" style="fill: none; stroke-dasharray: 3.7,1.6; stroke-dashoffset: 0; stroke: #000000"/>
   </g>
   <g id="line2d_100">
    <path d="M 1263.1267 159.989643 
L 1263.1267 206.289535 
" clip-path="url(#p1b30d86682)" style="fill: none; stroke-dasharray: 3.7,1.6; stroke-dashoffset: 0; stroke: #000000"/>
   </g>
   <g id="line2d_101">
    <path d="M 1263.1267 206.289535 
L 1263.1267 252.589427 
" clip-path="url(#p1b30d86682)" style="fill: none; stroke-dasharray: 3.7,1.6; stroke-dashoffset: 0; stroke: #000000"/>
   </g>
   <g id="line2d_102">
    <path d="M 1263.1267 252.589427 
L 1263.1267 298.889319 
" clip-path="url(#p1b30d86682)" style="fill: none; stroke-dasharray: 3.7,1.6; stroke-dashoffset: 0; stroke: #000000"/>
   </g>
   <g id="text_22">
    <g clip-path="url(#p1b30d86682)">
     <!-- H -->
     <g transform="translate(1350.838281 186.726777) scale(0.13 -0.13)">
      <use xlink:href="#DejaVuSans-48"/>
     </g>
    </g>
   </g>
   <g id="text_23">
    <g clip-path="url(#p1b30d86682)">
     <!-- H -->
     <g transform="translate(1350.838281 279.32656) scale(0.13 -0.13)">
      <use xlink:href="#DejaVuSans-48"/>
     </g>
    </g>
   </g>
   <g id="text_24">
    <g clip-path="url(#p1b30d86682)">
     <!-- H -->
     <g transform="translate(1489.737957 279.32656) scale(0.13 -0.13)">
      <use xlink:href="#DejaVuSans-48"/>
     </g>
    </g>
   </g>
   <g id="line2d_103">
    <path d="M 1610.37589 37.29493 
L 1610.37589 67.389859 
" clip-path="url(#p1b30d86682)" style="fill: none; stroke-dasharray: 3.7,1.6; stroke-dashoffset: 0; stroke: #000000"/>
   </g>
   <g id="text_25">
    <g clip-path="url(#p1b30d86682)">
     <!-- S6_Bell_measurement -->
     <g transform="translate(1538.199483 34.556178) scale(0.13 -0.13)">
      <defs>
       <path id="DejaVuSans-36" d="M 2113 2584 
Q 1688 2584 1439 2293 
Q 1191 2003 1191 1497 
Q 1191 994 1439 701 
Q 1688 409 2113 409 
Q 2538 409 2786 701 
Q 3034 994 3034 1497 
Q 3034 2003 2786 2293 
Q 2538 2584 2113 2584 
z
M 3366 4563 
L 3366 3988 
Q 3128 4100 2886 4159 
Q 2644 4219 2406 4219 
Q 1781 4219 1451 3797 
Q 1122 3375 1075 2522 
Q 1259 2794 1537 2939 
Q 1816 3084 2150 3084 
Q 2853 3084 3261 2657 
Q 3669 2231 3669 1497 
Q 3669 778 3244 343 
Q 2819 -91 2113 -91 
Q 1303 -91 875 529 
Q 447 1150 447 2328 
Q 447 3434 972 4092 
Q 1497 4750 2381 4750 
Q 2619 4750 2861 4703 
Q 3103 4656 3366 4563 
z
" transform="scale(0.015625)"/>
      </defs>
      <use xlink:href="#DejaVuSans-53"/>
      <use xlink:href="#DejaVuSans-36" transform="translate(63.476562 0)"/>
      <use xlink:href="#DejaVuSans-5f" transform="translate(127.099609 0)"/>
      <use xlink:href="#DejaVuSans-42" transform="translate(177.099609 0)"/>
      <use xlink:href="#DejaVuSans-65" transform="translate(245.703125 0)"/>
      <use xlink:href="#DejaVuSans-6c" transform="translate(307.226562 0)"/>
      <use xlink:href="#DejaVuSans-6c" transform="translate(335.009766 0)"/>
      <use xlink:href="#DejaVuSans-5f" transform="translate(362.792969 0)"/>
      <use xlink:href="#DejaVuSans-6d" transform="translate(412.792969 0)"/>
      <use xlink:href="#DejaVuSans-65" transform="translate(510.205078 0)"/>
      <use xlink:href="#DejaVuSans-61" transform="translate(571.728516 0)"/>
      <use xlink:href="#DejaVuSans-73" transform="translate(633.007812 0)"/>
      <use xlink:href="#DejaVuSans-75" transform="translate(685.107422 0)"/>
      <use xlink:href="#DejaVuSans-72" transform="translate(748.486328 0)"/>
      <use xlink:href="#DejaVuSans-65" transform="translate(787.349609 0)"/>
      <use xlink:href="#DejaVuSans-6d" transform="translate(848.873047 0)"/>
      <use xlink:href="#DejaVuSans-65" transform="translate(946.285156 0)"/>
      <use xlink:href="#DejaVuSans-6e" transform="translate(1007.808594 0)"/>
      <use xlink:href="#DejaVuSans-74" transform="translate(1071.1875 0)"/>
     </g>
    </g>
   </g>
   <g id="line2d_104">
    <path d="M 1610.37589 67.389859 
L 1610.37589 113.689751 
" clip-path="url(#p1b30d86682)" style="fill: none; stroke-dasharray: 3.7,1.6; stroke-dashoffset: 0; stroke: #000000"/>
   </g>
   <g id="line2d_105">
    <path d="M 1610.37589 113.689751 
L 1610.37589 159.989643 
" clip-path="url(#p1b30d86682)" style="fill: none; stroke-dasharray: 3.7,1.6; stroke-dashoffset: 0; stroke: #000000"/>
   </g>
   <g id="line2d_106">
    <path d="M 1610.37589 159.989643 
L 1610.37589 206.289535 
" clip-path="url(#p1b30d86682)" style="fill: none; stroke-dasharray: 3.7,1.6; stroke-dashoffset: 0; stroke: #000000"/>
   </g>
   <g id="line2d_107">
    <path d="M 1610.37589 206.289535 
L 1610.37589 252.589427 
" clip-path="url(#p1b30d86682)" style="fill: none; stroke-dasharray: 3.7,1.6; stroke-dashoffset: 0; stroke: #000000"/>
   </g>
   <g id="line2d_108">
    <path d="M 1610.37589 252.589427 
L 1610.37589 298.889319 
" clip-path="url(#p1b30d86682)" style="fill: none; stroke-dasharray: 3.7,1.6; stroke-dashoffset: 0; stroke: #000000"/>
   </g>
   <g id="text_26">
    <g clip-path="url(#p1b30d86682)">
     <!-- H -->
     <g transform="translate(1767.537308 47.827101) scale(0.13 -0.13)">
      <use xlink:href="#DejaVuSans-48"/>
     </g>
    </g>
   </g>
   <g id="text_27">
    <g clip-path="url(#p1b30d86682)">
     <!-- $\mathrm{\left|0\right\rangle}$ -->
     <g transform="translate(1856.640295 186.726777) scale(0.13 -0.13)">
      <use xlink:href="#DejaVuSans-7c" transform="translate(0 16.625) scale(0.756406)"/>
      <use xlink:href="#DejaVuSans-30" transform="translate(25.479126 0.125)"/>
      <use xlink:href="#DejaVuSans-27e9" transform="translate(89.102173 0.125)"/>
     </g>
    </g>
   </g>
   <g id="text_28">
    <g clip-path="url(#p1b30d86682)">
     <!-- $\mathrm{\left|0\right\rangle}$ -->
     <g transform="translate(1949.240079 233.026669) scale(0.13 -0.13)">
      <use xlink:href="#DejaVuSans-7c" transform="translate(0 16.625) scale(0.756406)"/>
      <use xlink:href="#DejaVuSans-30" transform="translate(25.479126 0.125)"/>
      <use xlink:href="#DejaVuSans-27e9" transform="translate(89.102173 0.125)"/>
     </g>
    </g>
   </g>
   <g id="text_29">
    <g clip-path="url(#p1b30d86682)">
     <!-- $\mathrm{\left|0\right\rangle}$ -->
     <g transform="translate(1995.539971 233.026669) scale(0.13 -0.13)">
      <use xlink:href="#DejaVuSans-7c" transform="translate(0 16.625) scale(0.756406)"/>
      <use xlink:href="#DejaVuSans-30" transform="translate(25.479126 0.125)"/>
      <use xlink:href="#DejaVuSans-27e9" transform="translate(89.102173 0.125)"/>
     </g>
    </g>
   </g>
   <g id="line2d_109">
    <path d="M 2096.524755 37.29493 
L 2096.524755 67.389859 
" clip-path="url(#p1b30d86682)" style="fill: none; stroke-dasharray: 3.7,1.6; stroke-dashoffset: 0; stroke: #000000"/>
   </g>
   <g id="text_30">
    <g clip-path="url(#p1b30d86682)">
     <!-- S7_swap_test -->
     <g transform="translate(2052.468973 34.326647) scale(0.13 -0.13)">
      <defs>
       <path id="DejaVuSans-37" d="M 525 4666 
L 3525 4666 
L 3525 4397 
L 1831 0 
L 1172 0 
L 2766 4134 
L 525 4134 
L 525 4666 
z
" transform="scale(0.015625)"/>
      </defs>
      <use xlink:href="#DejaVuSans-53"/>
      <use xlink:href="#DejaVuSans-37" transform="translate(63.476562 0)"/>
      <use xlink:href="#DejaVuSans-5f" transform="translate(127.099609 0)"/>
      <use xlink:href="#DejaVuSans-73" transform="translate(177.099609 0)"/>
      <use xlink:href="#DejaVuSans-77" transform="translate(229.199219 0)"/>
      <use xlink:href="#DejaVuSans-61" transform="translate(310.986328 0)"/>
      <use xlink:href="#DejaVuSans-70" transform="translate(372.265625 0)"/>
      <use xlink:href="#DejaVuSans-5f" transform="translate(435.742188 0)"/>
      <use xlink:href="#DejaVuSans-74" transform="translate(485.742188 0)"/>
      <use xlink:href="#DejaVuSans-65" transform="translate(524.951172 0)"/>
      <use xlink:href="#DejaVuSans-73" transform="translate(586.474609 0)"/>
      <use xlink:href="#DejaVuSans-74" transform="translate(638.574219 0)"/>
     </g>
    </g>
   </g>
   <g id="line2d_110">
    <path d="M 2096.524755 67.389859 
L 2096.524755 113.689751 
" clip-path="url(#p1b30d86682)" style="fill: none; stroke-dasharray: 3.7,1.6; stroke-dashoffset: 0; stroke: #000000"/>
   </g>
   <g id="line2d_111">
    <path d="M 2096.524755 113.689751 
L 2096.524755 159.989643 
" clip-path="url(#p1b30d86682)" style="fill: none; stroke-dasharray: 3.7,1.6; stroke-dashoffset: 0; stroke: #000000"/>
   </g>
   <g id="line2d_112">
    <path d="M 2096.524755 159.989643 
L 2096.524755 206.289535 
" clip-path="url(#p1b30d86682)" style="fill: none; stroke-dasharray: 3.7,1.6; stroke-dashoffset: 0; stroke: #000000"/>
   </g>
   <g id="line2d_113">
    <path d="M 2096.524755 206.289535 
L 2096.524755 252.589427 
" clip-path="url(#p1b30d86682)" style="fill: none; stroke-dasharray: 3.7,1.6; stroke-dashoffset: 0; stroke: #000000"/>
   </g>
   <g id="line2d_114">
    <path d="M 2096.524755 252.589427 
L 2096.524755 298.889319 
" clip-path="url(#p1b30d86682)" style="fill: none; stroke-dasharray: 3.7,1.6; stroke-dashoffset: 0; stroke: #000000"/>
   </g>
   <g id="text_31">
    <g clip-path="url(#p1b30d86682)">
     <!-- H -->
     <g transform="translate(2184.236335 233.026669) scale(0.13 -0.13)">
      <use xlink:href="#DejaVuSans-48"/>
     </g>
    </g>
   </g>
   <g id="text_32">
    <g clip-path="url(#p1b30d86682)">
     <!-- 0 -->
     <g transform="translate(2200.699511 315.246401) scale(0.104 -0.104)">
      <use xlink:href="#DejaVuSans-30"/>
     </g>
    </g>
   </g>
   <g id="text_33">
    <g clip-path="url(#p1b30d86682)">
     <!-- H -->
     <g transform="translate(2276.836119 233.026669) scale(0.13 -0.13)">
      <use xlink:href="#DejaVuSans-48"/>
     </g>
    </g>
   </g>
   <g id="text_34">
    <g clip-path="url(#p1b30d86682)">
     <!-- 2 -->
     <g transform="translate(2339.599187 315.246401) scale(0.104 -0.104)">
      <use xlink:href="#DejaVuSans-32"/>
     </g>
    </g>
   </g>
   <g id="text_35">
    <g clip-path="url(#p1b30d86682)">
     <!-- 1 -->
     <g transform="translate(2385.899079 315.246401) scale(0.104 -0.104)">
      <use xlink:href="#DejaVuSans-31"/>
     </g>
    </g>
   </g>
  </g>
 </g>
 <defs>
  <clipPath id="p1b30d86682">
   <rect x="7.2" y="7.2" width="2397.682035" height="342.6192"/>
  </clipPath>
 </defs>
</svg>
